<?xml version="1.0" encoding="utf-8"?>
<svg xmlns="http://www.w3.org/2000/svg" xmlns:xlink="http://www.w3.org/1999/xlink" width="839" height="519.1">
<style type="text/css">
	.st0{fill:url(#SVGID_1_);}
</style>
<linearGradient id="SVGID_1_" gradientUnits="userSpaceOnUse" x1="121.2487" y1="-51.821" x2="735.5853" y2="562.5157">
	<stop style="stop-color:#0042C0"/>
	<stop offset="1" style="stop-color:#33CCFF"/>
</linearGradient>
<path class="st0" d="M135.9,287.2c0,44.7,14.7,67.3,44,67.3c6.7,0,15.3-0.7,24.7-2c6.7-0.7,12-1.3,17.3-1.3c14,0,21.3,8,21.3,24
	c0,33.3-28,51.3-79.3,51.3c-74.6,0-112.6-48.6-112.6-144v-95.3c0-9.3-4-13.3-13.3-13.3h-4.7C10.7,173.9,0,161.3,0,134.6
	c0-27.3,10.7-40,33.3-40H38c9.3,0,13.3-4,13.3-13.3v-48C51.3,10.7,64.6,0,92.6,0c30,0,43.3,10.7,43.3,33.3v48
	c0,10,3.3,13.3,13.3,13.3h22.7c22.7,0,33.3,12.7,33.3,38.7c0,28-10,40.7-33.3,40.7h-22.7c-9.3,0-13.3,4-13.3,13.3V287.2z
	 M427.8,140.6c13.3-38.7,23.3-48,50.7-48c25.3,0,38.7,10,38.7,28.7c0,4.7-0.7,6.7-3.3,14.7l-88.6,239.2c-13.3,36.7-24,46-50.7,46
	c-26.7,0-37.3-9.3-50.6-46l-88.6-239.2c-2.7-6.7-3.3-10-3.3-14.7c0-18.7,13.3-28.7,38.7-28.7c27.3,0,36.7,9.3,50,48l44.7,128.6
	c2,5.3,4.7,8,9.3,8c4,0,7.3-2.7,8.7-8L427.8,140.6z M613.8,328.5c-8,0-11.3,3.3-11.3,10c0,66,43.3,106.6,114.6,106.6
	c25.3,0,42.6-4,74-16.7c10.7-4,15.3-5.3,20-5.3c11.3,0,19.3,10,19.3,25.3c0,40-54.6,70.6-127.3,70.6c-118.6,0-185.3-76-185.3-211.3
	c0-133.9,64-214.6,169.9-214.6c90.6,0,151.3,68,151.3,169.3c0,50.6-13.3,66-58,66H613.8z M747.1,261.2c8,0,10.7-3.3,10.7-12
	c0-61.3-26.7-94.6-74.6-94.6c-47.3,0-79.3,40-79.3,97.3c0,6,4,9.3,10.7,9.3H747.1z"/>
</svg>
