<?xml version="1.0" encoding="utf-8"?>
<!-- Generator: Adobe Illustrator 25.2.3, SVG Export Plug-In . SVG Version: 6.00 Build 0)  -->
<svg version="1.1" id="rtveplay_ffffff" xmlns="http://www.w3.org/2000/svg" xmlns:xlink="http://www.w3.org/1999/xlink" x="0px"
	 y="0px" viewBox="0 0 234.9 75.9" style="enable-background:new 0 0 234.9 75.9;" xml:space="preserve">
<style type="text/css">
	.st0{fill:url(#SVGID_1_);}
	.st1{fill:url(#SVGID_2_);}
	.st2{fill:url(#SVGID_3_);}
	.st3{fill:url(#SVGID_4_);}
	.st4{fill:url(#SVGID_5_);}
</style>
<linearGradient id="SVGID_1_" gradientUnits="userSpaceOnUse" x1="81.1486" y1="37.947" x2="234.5256" y2="37.947">
	<stop  offset="3.067093e-07" style="stop-color:#F18601"/>
	<stop  offset="0.3926" style="stop-color:#D5561B"/>
	<stop  offset="0.4792" style="stop-color:#D04D20"/>
	<stop  offset="0.6218" style="stop-color:#C4342F"/>
	<stop  offset="0.7148" style="stop-color:#BA203B"/>
	<stop  offset="0.8255" style="stop-color:#CC2E2A"/>
	<stop  offset="1" style="stop-color:#E54213"/>
</linearGradient>
<path class="st0" d="M137.4,26.2v14c0,6.3,2.1,9.4,6.3,9.4c1,0,2.1-0.1,4.8-0.4c0.3-0.1,0.6-0.1,0.9-0.1c2.1,0,3,1,3,3.5
	c0,4.6-4,7.1-11.1,7.1c-10.4,0-15.8-6.8-15.8-20.1V4.7c0-3.2,1.9-4.7,5.9-4.7c4.1,0,6,1.5,6,4.7v6.7L137.4,26.2L137.4,26.2z
	 M229.5,10.1c-3.8,0-5.2,1.3-7.1,6.7l-6.2,18c-0.2,0.7-0.7,1.1-1.2,1.1c-0.7,0-1-0.4-1.3-1.1l-6.2-18c-1.9-5.4-3.2-6.7-7-6.7
	c-3.5,0-5.4,1.4-5.4,4c0,0.7,0.1,1.1,0.5,2.1l12.4,33.5c0.5,1.3,0.9,2.4,1.4,3.2l-2.3,6.4c-2,5.5-4.7,7.4-8.3,6.1
	c-0.9-0.3-1.7-0.7-4-1.9c-0.2-0.2-0.5-0.3-0.8-0.4c-1.8-0.6-2.9-0.1-3.7,2c-1.4,3.9,1.2,7.4,7.3,9.6c9,3.3,15.7-0.9,19.9-12.3
	l4.2-11.3c0.2-0.5,0.4-0.9,0.6-1.5l12.4-33.5c0.4-1.1,0.5-1.4,0.5-2.1C234.9,11.5,233,10.1,229.5,10.1z M113.8,16.3
	c-2.6-3.9-6.4-5.9-11.3-5.9c-2.1,0-4.1,0.4-5.8,1.1c-1.4,0.6-2.8,1.4-4.2,2.6c-0.3-2.5-2-3.7-5.5-3.7c-3.7,0-5.5,1.4-5.5,4.3v9.6
	v0.9v45.1c0,3.1,2.5,5.6,5.6,5.6l0,0c3.1,0,5.6-2.5,5.6-5.6v-15c0.8,0.4,1.5,0.8,2.2,1c0.7,0.3,1.4,0.5,2.1,0.7
	c0.7,0.2,1.4,0.3,2.2,0.4c0.8,0.1,1.6,0.1,2.5,0.1c10.7,0,16-8.1,16-24.3C117.7,25.9,116.4,20.2,113.8,16.3z M106.1,40.9
	c-0.3,2-0.7,3.5-1.3,4.8c-0.6,1.2-1.4,2.1-2.4,2.6c-1,0.5-2.2,0.8-3.6,0.8c-0.6,0-1.2,0-1.7-0.1c-0.5-0.1-1-0.2-1.5-0.3
	c-0.5-0.1-1-0.3-1.4-0.5c-0.5-0.2-1-0.5-1.6-0.8V22.7c1.3-1.2,2.4-2,3.4-2.5c1-0.5,2.2-0.7,3.4-0.7c2.4,0,4.2,1.1,5.3,3.4
	c1.1,2.3,1.7,5.9,1.7,10.8C106.5,36.5,106.4,38.9,106.1,40.9z M179.7,56c0,2.1,1.7,3.7,3.7,3.7h3.2c2.1,0,3.7-1.7,3.7-3.7v-5.7v-2.4
	v-2.8V36v-0.2v-2.1c0-15-6.7-23.6-18.8-23.6c-7.6,0-13.7,3.6-13.7,8.4c0,2.1,1.1,3.6,2.8,3.6c0.6,0,1.2-0.2,2.3-0.6
	c3-1.3,4.6-1.7,6.9-1.7c6.5,0,10.4,4,10.4,10.6l0,0.1h-0.5c-1.2,0-2.3,0.1-3.3,0.1c-1,0-1.9,0.1-2.7,0.2c-0.8,0.1-1.5,0.1-2.2,0.2
	c-0.7,0.1-1.3,0.2-1.9,0.3c-4.5,0.9-7.9,2.6-10,4.9c-2.2,2.4-3.2,5.6-3.2,9.6c0,2.1,0.3,4,0.9,5.7c0.6,1.7,1.5,3.1,2.7,4.3
	c1.1,1.2,2.5,2.1,4.2,2.8c1.7,0.7,3.5,1,5.6,1c1.2,0,2.2-0.1,3.2-0.3c1-0.2,1.9-0.5,2.9-0.9c0.9-0.4,1.8-0.9,2.7-1.6
	C178.9,56.7,179.3,56.3,179.7,56 M179.7,48.1c-2.1,2.3-4.4,3.5-6.8,3.5c-0.8,0-1.5-0.2-2.2-0.5c-0.7-0.3-1.3-0.8-1.8-1.3
	c-0.5-0.5-0.9-1.2-1.2-2c-0.3-0.8-0.4-1.6-0.4-2.5c0-1.3,0.2-2.5,0.7-3.4s1.2-1.7,2.2-2.2c1-0.6,2.3-1,3.9-1.3
	c1.6-0.3,3.5-0.4,5.7-0.4V48.1z"/>
<linearGradient id="SVGID_2_" gradientUnits="userSpaceOnUse" x1="13.3229" y1="885.8912" x2="56.284" y2="842.9301" gradientTransform="matrix(1 0 0 1 0 -828.3)">
	<stop  offset="0" style="stop-color:#F5A717"/>
	<stop  offset="1" style="stop-color:#E6511F"/>
</linearGradient>
<path class="st1" d="M5.9,43.3c0,1.6-0.9,2.3-2.9,2.3c-2,0-3-0.8-3-2.3V24.6c0-1.7,0.8-2.4,2.6-2.4c1.6,0,2.2,0.4,2.6,1.8
	c0.1,0.3,0.2,0.4,0.4,0.4c0.1,0,0.2-0.1,0.6-0.4c1.2-1.1,3.1-1.8,5.1-1.8c1.2,0,1.8,0.6,1.8,1.9c0,3-0.6,4.1-2,4.1
	c-3.5,0-5.2,1.9-5.1,5.9L5.9,43.3L5.9,43.3z M15.1,18c0-1.6,0.9-2.4,2.9-2.4c2.1,0,3,0.8,3,2.4v3.4c0,0.7,0.2,0.9,0.9,0.9h1.6
	c1.6,0,2.3,0.9,2.3,2.8c0,1.9-0.8,2.8-2.3,2.8H22c-0.6,0-0.9,0.3-0.9,0.9V36c0,3.2,1,4.8,3.1,4.8c0.5,0,1-0.1,2.4-0.2
	c0.1-0.1,0.3-0.1,0.5-0.1c1,0,1.5,0.5,1.5,1.8c0,2.3-2,3.6-5.5,3.6c-5.2,0-7.9-3.5-7.9-10.2V18z M41.4,25.6c0.9-2.7,1.6-3.4,3.5-3.4
	c1.8,0,2.7,0.7,2.7,2c0,0.3-0.1,0.5-0.2,1l-6.2,17c-0.9,2.6-1.7,3.3-3.5,3.3c-1.9,0-2.6-0.6-3.5-3.3l-6.2-17c-0.2-0.5-0.2-0.7-0.2-1
	c0-1.3,0.9-2,2.7-2c1.9,0,2.6,0.6,3.5,3.4l3.1,9.1c0.1,0.4,0.3,0.6,0.6,0.6c0.3,0,0.5-0.2,0.6-0.6L41.4,25.6z M54.4,39
	c-0.6,0-0.8,0.2-0.8,0.7c0,4.7,3,7.6,8,7.6c1.8,0,3-0.3,5.2-1.2c0.8-0.3,1.1-0.4,1.4-0.4c0.8,0,1.4,0.7,1.4,1.8c0,2.8-3.8,5-8.9,5
	c-8.3,0-12.9-5.4-12.9-15c0-9.5,4.5-15.2,11.8-15.2c6.3,0,10.6,4.8,10.6,12c0,3.6-0.9,4.7-4,4.7L54.4,39L54.4,39z M63.7,34.2
	c0.6,0,0.8-0.2,0.8-0.9c0-4.4-1.9-6.7-5.2-6.7c-3.3,0-5.5,2.8-5.5,6.9c0,0.4,0.3,0.6,0.8,0.6C54.4,34.2,63.7,34.2,63.7,34.2z"/>
<radialGradient id="SVGID_3_" cx="203.47" cy="74.6263" r="30.1764" gradientUnits="userSpaceOnUse">
	<stop  offset="0" style="stop-color:#6BA12F"/>
	<stop  offset="0.3042" style="stop-color:#6D9F2F;stop-opacity:0.6958"/>
	<stop  offset="0.4755" style="stop-color:#729630;stop-opacity:0.5245"/>
	<stop  offset="0.6137" style="stop-color:#7C8931;stop-opacity:0.3863"/>
	<stop  offset="0.7343" style="stop-color:#897532;stop-opacity:0.2657"/>
	<stop  offset="0.8434" style="stop-color:#9B5B34;stop-opacity:0.1566"/>
	<stop  offset="0.9427" style="stop-color:#B03D36;stop-opacity:5.727428e-02"/>
	<stop  offset="1" style="stop-color:#BF2737;stop-opacity:0"/>
</radialGradient>
<path class="st2" d="M229.5,10.1c-3.8,0-5.2,1.3-7.1,6.7l-6.2,18c-0.2,0.7-0.7,1.1-1.2,1.1c-0.7,0-1-0.4-1.3-1.1l-6.2-18
	c-1.9-5.4-3.2-6.7-7-6.7c-3.5,0-5.4,1.4-5.4,4c0,0.7,0.1,1.1,0.5,2.1l12.4,33.5c0.5,1.3,0.9,2.4,1.4,3.2l-2.3,6.4
	c-2,5.5-4.7,7.4-8.3,6.1c-0.9-0.3-1.7-0.7-4-1.9c-0.2-0.2-0.5-0.3-0.8-0.4c-1.8-0.6-2.9-0.1-3.7,2c-1.4,3.9,1.2,7.4,7.3,9.6
	c9,3.3,15.7-0.9,19.9-12.3l4.2-11.3c0.2-0.5,0.4-0.9,0.6-1.5l12.4-33.5c0.4-1.1,0.5-1.4,0.5-2.1C234.9,11.5,233,10.1,229.5,10.1z"/>
<g>
	<radialGradient id="SVGID_4_" cx="104.2308" cy="84.0221" r="54.2429" gradientUnits="userSpaceOnUse">
		<stop  offset="0" style="stop-color:#BB0AFF"/>
		<stop  offset="0.3204" style="stop-color:#BB0BFD;stop-opacity:0.6796"/>
		<stop  offset="0.4615" style="stop-color:#BC0DF6;stop-opacity:0.5385"/>
		<stop  offset="0.5673" style="stop-color:#BE11E9;stop-opacity:0.4327"/>
		<stop  offset="0.6557" style="stop-color:#C017D7;stop-opacity:0.3443"/>
		<stop  offset="0.733" style="stop-color:#C21FC0;stop-opacity:0.267"/>
		<stop  offset="0.8027" style="stop-color:#C529A3;stop-opacity:0.1973"/>
		<stop  offset="0.8667" style="stop-color:#C93481;stop-opacity:0.1333"/>
		<stop  offset="0.9261" style="stop-color:#CE4159;stop-opacity:7.388669e-02"/>
		<stop  offset="0.9799" style="stop-color:#D3502D;stop-opacity:2.009726e-02"/>
		<stop  offset="1" style="stop-color:#D5561B;stop-opacity:0"/>
	</radialGradient>
	<path class="st3" d="M102.5,10.4c-2.1,0-4.1,0.4-5.8,1.1c-1.4,0.6-2.8,1.4-4.2,2.6c-0.3-2.5-2-3.7-5.5-3.7c-3.7,0-5.5,1.4-5.5,4.3
		v9.6v0.9v45.1c0,3.1,2.5,5.6,5.6,5.6c3.1,0,5.6-2.5,5.6-5.6v-15c0.8,0.4,1.5,0.8,2.2,1c0.7,0.3,1.4,0.5,2.1,0.7
		c0.7,0.2,1.4,0.3,2.2,0.4c0.8,0.1,1.6,0.1,2.5,0.1c10.7,0,16-8.1,16-24.3c0-7.4-1.3-13.1-3.9-17C111.2,12.4,107.4,10.4,102.5,10.4z
		 M106.1,40.9c-0.3,2-0.7,3.5-1.3,4.8c-0.6,1.2-1.4,2.1-2.4,2.6c-1,0.5-2.2,0.8-3.6,0.8c-0.6,0-1.2,0-1.7-0.1
		c-0.5-0.1-1-0.2-1.5-0.3c-0.5-0.1-1-0.3-1.4-0.5c-0.5-0.2-1-0.5-1.6-0.8V22.7c1.3-1.2,2.4-2,3.4-2.5c1-0.5,2.2-0.7,3.4-0.7
		c2.4,0,4.2,1.1,5.3,3.4c1.1,2.3,1.7,5.9,1.7,10.8C106.5,36.5,106.4,38.9,106.1,40.9z"/>
	<radialGradient id="SVGID_5_" cx="109.4664" cy="83.8712" r="54.2429" gradientUnits="userSpaceOnUse">
		<stop  offset="0" style="stop-color:#BB0AFF"/>
		<stop  offset="0.3168" style="stop-color:#BC0BFD;stop-opacity:0.6832"/>
		<stop  offset="0.454" style="stop-color:#BD0DF6;stop-opacity:0.546"/>
		<stop  offset="0.5564" style="stop-color:#C110E9;stop-opacity:0.4436"/>
		<stop  offset="0.6416" style="stop-color:#C615D7;stop-opacity:0.3584"/>
		<stop  offset="0.7162" style="stop-color:#CC1CC0;stop-opacity:0.2838"/>
		<stop  offset="0.7832" style="stop-color:#D323A3;stop-opacity:0.2168"/>
		<stop  offset="0.8446" style="stop-color:#DC2D81;stop-opacity:0.1554"/>
		<stop  offset="0.9018" style="stop-color:#E7385A;stop-opacity:9.824240e-02"/>
		<stop  offset="0.9533" style="stop-color:#F3442E;stop-opacity:4.672241e-02"/>
		<stop  offset="1" style="stop-color:#FF5100;stop-opacity:0"/>
	</radialGradient>
	<path class="st4" d="M149.4,49.2c-0.4,0-0.7,0-0.9,0.1c-2.8,0.3-3.8,0.4-4.8,0.4c-4.2,0-6.3-3.1-6.3-9.4v-14h0V11.4V4.7
		c0-3.2-1.9-4.7-6-4.7c-4,0-5.9,1.5-5.9,4.7v34.9c0,13.3,5.3,20.1,15.8,20.1c7.1,0,11.1-2.5,11.1-7.1
		C152.4,50.2,151.5,49.2,149.4,49.2z"/>
</g>
</svg>
