<?xml version="1.0" encoding="utf-8"?>
<!-- Generator: Adobe Illustrator 23.0.1, SVG Export Plug-In . SVG Version: 6.00 Build 0)  -->
<svg version="1.1" id="RTVEplay2023" xmlns="http://www.w3.org/2000/svg" xmlns:xlink="http://www.w3.org/1999/xlink" x="0px"
	 y="0px" width="500px" height="121.131px" viewBox="0 0 500 121.131" enable-background="new 0 0 500 121.131"
	 xml:space="preserve">
<path fill="#BCBCAC" d="M260.61,119.82v-5.505l9.949-0.816V32.428l-10.194-0.811v-5.505h16.449l0.939,10.321
	c2.255-3.668,5.163-6.515,8.729-8.536c3.566-2.02,7.765-3.036,12.602-3.036c5.418,0,10.076,1.469,13.979,4.408
	c3.898,2.939,6.883,7.082,8.944,12.418c2.066,5.337,3.097,11.612,3.097,18.826v1.316c0,6.755-1.031,12.617-3.097,17.576
	c-2.061,4.964-5.025,8.816-8.883,11.571c-3.857,2.755-8.474,4.128-13.857,4.128c-4.796,0-8.974-0.898-12.541-2.689
	c-3.566-1.791-6.454-4.291-8.663-7.505v28.586l10.444,0.816v5.505C288.507,119.82,260.61,119.82,260.61,119.82z M297.517,88.856
	c6.546,0,11.515-2.459,14.918-7.383c3.398-4.918,5.097-11.464,5.097-19.643v-1.316c0-5.755-0.776-10.821-2.316-15.199
	c-1.546-4.378-3.806-7.806-6.786-10.291c-2.985-2.48-6.663-3.719-11.041-3.719c-5.133,0-9.25,1.25-12.352,3.755
	c-3.107,2.5-5.434,5.673-6.974,9.505v32.28c1.582,3.714,4,6.643,7.255,8.791C288.568,87.785,292.635,88.856,297.517,88.856
	 M360.129,93.795v-5.444l-10.194-0.811V0h-17.704v5.505l10.194,0.816v81.224l-10.194,0.811V93.8h27.898V93.795z M390.654,95.111
	c-6.423,0-11.449-1.709-15.076-5.127s-5.439-8.046-5.439-13.888c0-4.168,1.204-7.826,3.628-10.979
	c2.418-3.148,5.852-5.597,10.291-7.352c4.439-1.75,9.704-2.628,15.796-2.628h14.01v-7.755c0-4.878-1.449-8.806-4.347-11.791
	c-2.903-2.98-7.27-4.474-13.107-4.474c-3.296,0-6.25,0.531-8.852,1.597c-2.607,1.061-4.872,2.408-6.786,4.036l-0.622,10.321h-6.194
	V32.933c2.918-2.5,6.235-4.474,9.949-5.913c3.709-1.439,7.918-2.158,12.633-2.158c7.964,0,14.092,2,18.388,6.005
	c4.296,4.005,6.444,9.551,6.444,16.638v32.653c0,1.337,0.041,2.658,0.128,3.974c0.082,1.311,0.224,2.617,0.439,3.908l8.071,0.311
	v5.444h-14.76c-0.5-2.459-0.847-4.444-1.036-5.944c-0.189-1.5-0.306-3.189-0.342-5.066c-2.464,3.628-5.714,6.592-9.755,8.883
	C400.052,93.958,395.572,95.111,390.654,95.111 M391.527,88.54c4.628,0,9.015-1.219,13.168-3.658
	c4.148-2.439,7.199-5.679,9.163-9.724V60.892h-14.071c-6.923,0-12.347,1.495-16.265,4.474c-3.923,2.98-5.878,6.643-5.878,10.974
	c0,3.628,1.25,6.566,3.755,8.821C383.899,87.417,387.277,88.54,391.527,88.54 M445.888,121.131c3.587,0,6.566-0.699,8.944-2.097
	c2.378-1.398,4.357-3.347,5.944-5.852c1.582-2.5,3-5.342,4.255-8.505l27.775-72.622L500,31.617v-5.505h-23.648v5.505l8.816,0.561
	l-19.326,51.357h-0.372l-2.816-7.694l-17.388-43.663l8.571-0.561v-5.505h-23.842v5.505l7.316,0.439l24.831,60.928l-3.5,9.194
	c-1.582,3.959-3.337,7.015-5.255,9.163c-1.918,2.143-4.505,3.219-7.755,3.219c-0.5,0-1.281-0.056-2.347-0.158
	c-1.061-0.107-1.888-0.199-2.469-0.281l-0.878,6.194c0.628,0.163,1.551,0.342,2.786,0.531
	C443.96,121.04,445.011,121.131,445.888,121.131"/>
<linearGradient id="SVGID_1_" gradientUnits="userSpaceOnUse" x1="43.9185" y1="137.3209" x2="184.2901" y2="-3.0506">
	<stop  offset="0" style="stop-color:#F5A717"/>
	<stop  offset="1" style="stop-color:#E6511F"/>
</linearGradient>
<path fill="url(#SVGID_1_)" d="M19.366,90.201c0,5.033-3.049,7.32-9.607,7.32C3.049,97.521,0,95.08,0,90.201V30.118
	c0-5.336,2.595-7.625,8.386-7.625c5.341,0,7.168,1.219,8.39,5.795c0.303,0.914,0.762,1.371,1.217,1.371
	c0.459,0,0.762-0.152,1.832-1.219c3.812-3.658,10.218-5.947,16.776-5.947c3.963,0,5.947,2.135,5.947,6.252
	c0,9.607-1.832,13.116-6.558,13.116c-11.591,0-17.079,6.25-16.624,18.909V90.201z M49.716,8.768c0-5.185,3.049-7.625,9.607-7.625
	c6.709,0,9.759,2.441,9.759,7.625v10.98c0,2.287,0.762,3.049,3.049,3.049h5.185c5.185,0,7.623,2.898,7.623,9.15
	c0,6.099-2.439,8.996-7.623,8.996h-5.185c-2.135,0-3.049,0.916-3.049,3.051V66.87c0,10.369,3.352,15.4,10.218,15.4
	c1.676,0,3.352-0.152,7.926-0.609c0.459-0.154,0.918-0.154,1.529-0.154c3.352,0,4.877,1.678,4.877,5.642
	c0,7.474-6.558,11.591-18.144,11.591c-17.083,0-25.772-11.132-25.772-32.938V8.768z M135.872,33.319
	c3.054-8.845,5.341-10.978,11.591-10.978c5.795,0,8.845,2.287,8.845,6.556c0,1.068-0.152,1.525-0.762,3.357l-20.28,54.744
	c-3.054,8.388-5.492,10.523-11.591,10.523c-6.099,0-8.542-2.135-11.591-10.523l-20.28-54.744c-0.611-1.525-0.767-2.289-0.767-3.357
	c0-4.269,3.054-6.556,8.845-6.556c6.255,0,8.39,2.133,11.439,10.978l10.218,29.432c0.459,1.221,1.065,1.832,2.135,1.832
	c0.914,0,1.676-0.611,1.984-1.832L135.872,33.319z M178.423,76.323c-1.832,0-2.595,0.765-2.595,2.289
	c0,15.095,9.915,24.399,26.231,24.399c5.795,0,9.759-0.916,16.927-3.812c2.443-0.916,3.508-1.221,4.574-1.221
	c2.595,0,4.427,2.287,4.427,5.795c0,9.15-12.505,16.165-29.129,16.165c-27.145,0-42.396-17.386-42.396-48.343
	c0-30.651,14.64-49.103,38.887-49.103c20.739,0,34.617,15.554,34.617,38.734c0,11.591-3.049,15.097-13.267,15.097H178.423z
	 M208.921,60.923c1.832,0,2.443-0.762,2.443-2.746c0-14.029-6.103-21.655-17.083-21.655c-10.824,0-18.144,9.15-18.144,22.266
	c0,1.373,0.914,2.135,2.439,2.135H208.921z"/>
</svg>
