<?xml version="1.0" encoding="utf-8"?>
<!-- Generator: Adobe Illustrator 23.0.1, SVG Export Plug-In . SVG Version: 6.00 Build 0)  -->
<svg version="1.1" id="Livello_1" xmlns="http://www.w3.org/2000/svg" xmlns:xlink="http://www.w3.org/1999/xlink" x="0px" y="0px"
	 viewBox="0 0 742.373 200" enable-background="new 0 0 742.373 200" xml:space="preserve">
<g>
	
		<linearGradient id="SVGID_1_" gradientUnits="userSpaceOnUse" x1="75.9744" y1="3459.1606" x2="316.8424" y2="3700.0286" gradientTransform="matrix(1 0 0 -1 0 3690.9207)">
		<stop  offset="0" style="stop-color:#FFA000"/>
		<stop  offset="1" style="stop-color:#F05014"/>
	</linearGradient>
	<path fill="url(#SVGID_1_)" d="M33.102,150.434c0,8.482-5.213,12.335-16.423,12.335C5.213,162.77,0,158.653,0,150.434V49.186
		c0-8.994,4.436-12.85,14.335-12.85c9.129,0,12.254,2.056,14.34,9.766c0.518,1.539,1.303,2.31,2.081,2.31
		c0.785,0,1.303-0.256,3.132-2.056c6.515-6.166,17.465-10.022,28.675-10.022c6.774,0,10.166,3.599,10.166,10.536
		c0,16.189-3.132,22.101-11.21,22.101c-19.811,0-29.194,10.533-28.416,31.863v49.597h-0.002V150.434z M87.309,12.85
		C87.309,4.112,92.522,0,103.732,0c11.469,0,16.68,4.112,16.68,12.85v18.504c0,3.854,1.303,5.138,5.213,5.138h8.862
		c8.862,0,13.031,4.882,13.031,15.42c0,10.277-4.169,15.159-13.031,15.159h-8.862c-3.649,0-5.213,1.545-5.213,5.143v37.075
		c0,17.473,5.73,25.955,17.465,25.955c2.866,0,5.73-0.256,13.548-1.028c0.785-0.256,1.57-0.256,2.614-0.256
		c5.73,0,8.335,2.824,8.335,9.503c0,12.598-11.21,19.532-31.013,19.532c-29.199,0-44.052-18.76-44.052-55.501
		C87.309,107.494,87.309,12.85,87.309,12.85z M235.32,54.581c5.219-14.904,9.129-18.499,19.811-18.499
		c9.906,0,15.118,3.854,15.118,11.046c0,1.8-0.259,2.569-1.303,5.656l-34.664,92.248c-5.219,14.139-9.388,17.737-19.811,17.737
		c-10.423,0-14.599-3.599-19.811-17.737l-34.662-92.248c-1.044-2.569-1.311-3.856-1.311-5.656c0-7.194,5.219-11.046,15.118-11.046
		c10.691,0,14.34,3.595,19.554,18.499l17.464,49.597c0.785,2.058,1.822,3.086,3.649,3.086c1.561,0,2.866-1.028,3.392-3.086
		L235.32,54.581z M307.834,126.509c-3.132,0-4.436,1.284-4.436,3.854c0,25.437,16.947,41.114,44.837,41.114
		c9.906,0,16.68-1.539,28.933-6.423c4.175-1.539,5.996-2.059,7.818-2.059c4.436,0,7.566,3.854,7.566,9.766
		c0,15.422-21.375,27.239-49.791,27.239c-46.4,0-72.468-29.298-72.468-81.462c0-51.649,25.024-82.742,66.47-82.742
		c35.449,0,59.17,26.211,59.17,65.269c0,19.53-5.213,25.442-22.677,25.442h-65.426v0.002H307.834z M359.964,100.556
		c3.132,0,4.175-1.284,4.175-4.628c0-23.642-10.432-36.491-29.199-36.491c-18.5,0-31.014,15.42-31.014,37.519
		c0,2.313,1.561,3.599,4.169,3.599h51.869V100.556z"/>
	
		<linearGradient id="SVGID_2_" gradientUnits="userSpaceOnUse" x1="608.9892" y1="3543.4062" x2="563.9906" y2="3711.3433" gradientTransform="matrix(1 0 0 -1 0 3690.9207)">
		<stop  offset="0" style="stop-color:#F05014"/>
		<stop  offset="1" style="stop-color:#FFA000"/>
	</linearGradient>
	<path fill="url(#SVGID_2_)" d="M556.872,70.541v26.554c0,11.949,3.983,17.829,11.949,17.829c1.897,0,3.983-0.19,9.104-0.759
		c0.569-0.19,1.138-0.19,1.707-0.19c3.983,0,5.69,1.897,5.69,6.639c0,8.725-7.587,13.467-21.054,13.467
		c-19.726,0-29.968-12.898-29.968-38.124V29.761c0-6.07,3.604-8.915,11.191-8.915c7.777,0,11.38,2.845,11.38,8.915v12.708V70.541
		L556.872,70.541z M731.562,40.003c-7.208,0-9.863,2.466-13.467,12.708l-11.76,34.141c-0.379,1.328-1.328,2.086-2.276,2.086
		c-1.328,0-1.897-0.759-2.466-2.086l-11.76-34.141c-3.604-10.242-6.07-12.708-13.277-12.708c-6.639,0-10.242,2.655-10.242,7.587
		c0,1.328,0.19,2.086,0.948,3.983l23.519,63.541c0.948,2.466,1.707,4.552,2.655,6.07l-4.363,12.139
		c-3.793,10.432-8.915,14.036-15.743,11.57c-1.707-0.569-3.224-1.328-7.587-3.604c-0.379-0.379-0.948-0.569-1.517-0.759
		c-3.414-1.138-5.5-0.19-7.018,3.793c-2.655,7.397,2.276,14.036,13.846,18.209c17.071,6.259,29.779-1.707,37.745-23.33l7.966-21.433
		c0.379-0.948,0.759-1.707,1.138-2.845l23.52-63.541c0.759-2.086,0.948-2.655,0.948-3.983
		C741.804,42.659,738.2,40.003,731.562,40.003z M512.109,51.763c-4.932-7.397-12.139-11.191-21.433-11.191
		c-3.983,0-7.777,0.759-11.001,2.086c-2.655,1.138-5.311,2.655-7.966,4.932c-0.569-4.742-3.793-7.018-10.432-7.018
		c-7.018,0-10.432,2.655-10.432,8.156v18.209v1.707v85.543c0,5.88,4.742,10.622,10.622,10.622l0,0
		c5.88,0,10.622-4.742,10.622-10.622v-28.451c1.517,0.759,2.845,1.517,4.173,1.897c1.328,0.569,2.655,0.948,3.983,1.328
		s2.655,0.569,4.173,0.759c1.517,0.19,3.035,0.19,4.742,0.19c20.295,0,30.348-15.364,30.348-46.091
		C519.507,69.972,517.041,59.16,512.109,51.763z M497.505,98.423c-0.569,3.793-1.328,6.639-2.466,9.104
		c-1.138,2.276-2.655,3.983-4.552,4.932c-1.897,0.948-4.173,1.517-6.828,1.517c-1.138,0-2.276,0-3.224-0.19
		c-0.948-0.19-1.897-0.379-2.845-0.569c-0.948-0.19-1.897-0.569-2.655-0.948c-0.948-0.379-1.897-0.948-3.035-1.517V63.902
		c2.466-2.276,4.552-3.793,6.449-4.742c1.897-0.948,4.173-1.328,6.449-1.328c4.552,0,7.966,2.086,10.053,6.449
		c2.086,4.362,3.224,11.191,3.224,20.485C498.263,90.077,498.074,94.629,497.505,98.423z M637.104,127.064
		c0,3.983,3.224,7.018,7.018,7.018h6.07c3.983,0,7.018-3.224,7.018-7.018v-10.811V111.7v-5.311v-17.26V88.75v-3.983
		c0-28.451-12.708-44.763-35.659-44.763c-14.415,0-25.985,6.828-25.985,15.933c0,3.983,2.086,6.828,5.311,6.828
		c1.138,0,2.276-0.379,4.362-1.138c5.69-2.466,8.725-3.224,13.087-3.224c12.329,0,19.726,7.587,19.726,20.105v0.19h-0.948
		c-2.276,0-4.362,0.19-6.259,0.19s-3.604,0.19-5.121,0.379c-1.517,0.19-2.845,0.19-4.173,0.379s-2.466,0.379-3.604,0.569
		c-8.535,1.707-14.984,4.932-18.967,9.294c-4.173,4.552-6.07,10.622-6.07,18.209c0,3.983,0.569,7.587,1.707,10.811
		c1.138,3.224,2.845,5.88,5.121,8.156c2.086,2.276,4.742,3.983,7.966,5.311c3.224,1.328,6.639,1.897,10.622,1.897
		c2.276,0,4.173-0.19,6.07-0.569s3.604-0.948,5.501-1.707c1.707-0.759,3.414-1.707,5.121-3.035
		C635.587,128.391,636.346,127.633,637.104,127.064 M637.104,112.079c-3.983,4.362-8.346,6.639-12.898,6.639
		c-1.517,0-2.845-0.379-4.173-0.948c-1.328-0.569-2.466-1.517-3.414-2.466c-0.948-0.948-1.707-2.276-2.276-3.793
		s-0.759-3.035-0.759-4.742c0-2.466,0.379-4.742,1.328-6.449s2.276-3.224,4.173-4.173c1.897-1.138,4.362-1.897,7.397-2.466
		c3.035-0.569,6.639-0.759,10.811-0.759v19.157H637.104z"/>
</g>
</svg>
