<?xml version="1.0" encoding="UTF-8"?>
<!-- Generator: Adobe Illustrator 27.4.0, SVG Export Plug-In . SVG Version: 6.00 Build 0)  -->
<svg version="1.1" id="Livello_1" xmlns="http://www.w3.org/2000/svg" xmlns:xlink="http://www.w3.org/1999/xlink" x="0px" y="0px" viewBox="0 0 291.9 187.8" style="enable-background:new 0 0 291.9 187.8;" xml:space="preserve">
<style type="text/css">
	.st0{fill:#FA3732;}
</style>
<g>
	<g>
		<path d="M212.2,121.2c3.9-1.8,8.4-1.2,11.8,1.3c4.2,3.3,6,8.7,7.5,13.7c2.6,10.3,2.9,21.1,1.1,31.6c-0.5,3.1-2.3,6.6-5.7,7.1    c-2.6,0.3-4.9-1.6-5.1-4.1c0,0,0,0,0-0.1c-0.6-7.1,2-14.2,0.4-21.2c-0.4-2.3-2.8-4.3-5.2-3.8c-3.1,1-5.1,3.8-6.6,6.6    c-3.1,6-4.9,12.5-7,18.9c-1.4,4.6-3.7,9.5-8.1,11.9c-7.3,3.9-17.6,3.1-22.8-3.8c-4.5-6.1-7.6-13.2-11.8-19.6    c-1.1-1.4-2.7-3.6-4.8-2.8c-2.1,0.6-2.6,3-2.6,4.9c0.3,7,3.7,13.3,4.8,20.1c0.7,2.8-1.1,6.5-4.4,6c-3.1,0.4-4.9-2.6-6-5    c-4.6-11.3-7.1-23.9-4.5-35.9c1.2-5.6,3.1-11.4,7.4-15.4s11.6-4.8,16.3-1.1c6.7,5.2,9.6,13.7,15.2,19.8c3.1,3.5,9.2,3.6,12-0.3    C200.3,140.6,200.7,126.2,212.2,121.2z"/>
		<path d="M262.9,130.7h13.3v16h15.7v13h-15.8c0,5.3,0,10.7,0,16h-13.3v-16h-16v-13h16L262.9,130.7L262.9,130.7z"/>
	</g>
	<g>
		<path d="M63.7,161.1c0,2.2-0.3,4.2-0.8,6c-0.6,1.8-1.4,3.4-2.5,4.7s-2.5,2.3-4.1,3s-3.5,1.1-5.7,1.1c-1.4,0-2.8-0.3-4.1-0.9    c-1.3-0.6-2.2-1.3-2.9-2.1v14.2h-7.1v-40.3h7.1v3c0.2-0.4,0.5-0.8,0.9-1.2s0.9-0.8,1.5-1.1s1.3-0.6,2-0.8c0.8-0.2,1.6-0.3,2.4-0.3    c2.2,0,4.1,0.4,5.7,1.1c1.6,0.7,3,1.7,4.1,3s1.9,2.8,2.5,4.7C63.4,156.9,63.7,158.9,63.7,161.1z M56.3,161.1c0-2.8-0.6-5-1.9-6.5    c-1.3-1.5-2.9-2.2-4.7-2.2c-1.9,0-3.4,0.8-4.7,2.2c-1.3,1.5-1.9,3.7-1.9,6.5s0.6,5,1.9,6.5c1.3,1.5,2.8,2.2,4.7,2.2    s3.4-0.7,4.7-2.2C55.6,166.1,56.3,163.9,56.3,161.1z"/>
		<path d="M67.8,161.1c0-2.1,0.3-4,1-5.8c0.6-1.8,1.6-3.4,2.8-4.7c1.3-1.3,2.8-2.4,4.6-3.1c1.8-0.8,3.9-1.1,6.2-1.1s4.4,0.4,6.2,1.1    c1.8,0.8,3.3,1.8,4.6,3.1c1.3,1.3,2.2,2.9,2.8,4.7c0.6,1.8,1,3.7,1,5.8s-0.3,4-1,5.8c-0.6,1.8-1.6,3.4-2.8,4.7    c-1.3,1.3-2.8,2.4-4.6,3.1c-1.8,0.8-3.9,1.1-6.2,1.1c-2.3,0-4.4-0.4-6.2-1.1c-1.8-0.8-3.3-1.8-4.6-3.1c-1.3-1.3-2.2-2.9-2.8-4.7    C68.1,165.1,67.8,163.2,67.8,161.1z M75.2,161.1c0,1.2,0.2,2.3,0.5,3.4s0.8,2,1.4,2.8s1.4,1.4,2.2,1.9c0.9,0.5,1.9,0.7,3,0.7    s2.2-0.2,3-0.7c0.9-0.5,1.6-1.1,2.2-1.9c0.6-0.8,1.1-1.7,1.4-2.8s0.5-2.2,0.5-3.4s-0.2-2.3-0.5-3.4c-0.3-1.1-0.8-2-1.4-2.8    s-1.4-1.4-2.2-1.9c-0.9-0.5-1.9-0.7-3-0.7s-2.2,0.2-3,0.7c-0.9,0.5-1.6,1.1-2.2,1.9c-0.6,0.8-1.1,1.7-1.4,2.8    C75.3,158.8,75.2,159.9,75.2,161.1z"/>
		<path d="M101.7,175.4v-28.7h7.1v4.7c1-1.7,2.3-3,3.8-3.8c1.5-0.9,3.1-1.3,4.7-1.3c0.3,0,0.7,0,1.1,0.1c0.4,0,0.8,0.1,1.1,0.2v6.9    c-0.9-0.5-1.9-0.8-3-0.8c-1,0-2,0.2-2.9,0.7s-1.7,1.2-2.4,2.2c-0.7,1-1.3,2.3-1.7,3.9c-0.4,1.6-0.6,3.6-0.6,5.9v10.2L101.7,175.4    L101.7,175.4L101.7,175.4z"/>
	</g>
</g>
<path class="st0" d="M53.7,34.6c-0.6-1.6-1.4-3.2-2.3-4.7c-0.9-1.5-2-2.8-3.3-3.9c-1.3-1.1-2.8-2-4.6-2.6c-1.7-0.6-3.7-0.9-5.9-0.9  c-2.4,0-4.6,0.5-6.8,1.4c-2.1,1-4.1,2.4-5.7,4.3c-1.7,1.9-3,4.3-3.9,7.2c-1,2.9-1.4,6.2-1.4,9.9s0.5,7.1,1.4,9.9  c1,2.9,2.3,5.2,3.9,7.2c1.6,1.9,3.5,3.4,5.7,4.3c2.2,1,4.5,1.4,6.8,1.4s4.3-0.3,6.1-0.9c1.7-0.6,3.2-1.5,4.5-2.6s2.3-2.4,3.3-3.8  c0.9-1.4,1.7-3,2.3-4.7L71.3,61c-2.2,8.1-6.2,14.1-12,18.1s-12.9,6-21.4,6c-5.2,0-10.1-0.9-14.7-2.6s-8.6-4.2-12-7.6  C7.7,71.7,5,67.5,3,62.6c-2-5-3-10.7-3-17.2c0-6.5,1-12.3,3.1-17.2c2-5,4.8-9.1,8.3-12.4c3.5-3.3,7.5-5.8,12.1-7.6  c4.6-1.7,9.4-2.6,14.4-2.6c9,0,16.3,2.1,22.2,6.3c5.8,4.2,9.6,10.1,11.5,17.5L53.7,34.6z"/>
<path class="st0" d="M78.3,10.8c0-1.6,0.3-3,0.8-4.3c0.6-1.3,1.3-2.4,2.3-3.4s2.1-1.8,3.4-2.3C86.1,0.2,87.6,0,89.1,0  c1.6,0,3,0.3,4.3,0.8c1.3,0.6,2.5,1.3,3.4,2.3c1,1,1.7,2.1,2.3,3.4c0.6,1.3,0.8,2.7,0.8,4.3c0,1.6-0.3,3-0.8,4.3  c-0.6,1.3-1.3,2.4-2.3,3.4s-2.1,1.8-3.4,2.3c-1.3,0.6-2.8,0.8-4.3,0.8c-1.6,0-3-0.3-4.3-0.8c-1.3-0.6-2.5-1.3-3.4-2.3  c-1-1-1.7-2.1-2.3-3.4C78.6,13.8,78.3,12.4,78.3,10.8z M98.3,28.3v56H80.1v-56H98.3z"/>
<path class="st0" d="M129.3,28.3v6.4c1.5-2.1,3.6-3.9,6.4-5.3c2.8-1.4,6-2.1,9.4-2.1c6.4,0,11.2,1.6,14.2,4.8  c3,3.2,4.5,7.8,4.5,13.6v38.5h-18.2v-33c0-2.4-0.6-4.2-1.7-5.6c-1.1-1.3-2.7-2-4.7-2c-3.1,0-5.6,1.4-7.3,4.1  c-1.8,2.7-2.7,6.7-2.7,12v24.5H111v-56L129.3,28.3L129.3,28.3z"/>
<path class="st0" d="M190,60.9c0.6,3.3,1.9,5.9,4,7.6s4.9,2.6,8.4,2.6c4.7,0,8.4-2,11-6l14,5.1c-2.4,4.4-5.6,7.9-9.8,10.7  c-4.2,2.8-9.6,4.2-16.4,4.2c-5,0-9.3-0.9-12.9-2.7c-3.6-1.8-6.5-4.1-8.8-6.8c-2.3-2.8-3.9-5.9-4.9-9.3s-1.6-6.8-1.6-10.1  s0.6-6.7,1.7-10.1c1.1-3.4,2.9-6.5,5.3-9.3c2.4-2.8,5.3-5.1,8.9-6.8c3.6-1.8,7.7-2.7,12.5-2.7c5,0,9.3,0.9,12.8,2.7s6.3,4,8.4,6.8  c2.1,2.7,3.7,5.7,4.6,9c0.9,3.3,1.4,6.4,1.4,9.3v5.8L190,60.9L190,60.9z M201.2,40.6c-2.3,0-4.5,0.7-6.5,2.1c-2,1.4-3.5,3.5-4.3,6.5  h21.4c-0.4-2.4-1.5-4.4-3.3-6.1C206.8,41.4,204.3,40.6,201.2,40.6z"/>
<rect x="262.9" y="6.5" width="13.3" height="77.7"/>
</svg>