<?xml version="1.0" encoding="utf-8"?>
<!-- Generator: Adobe Illustrator 23.0.1, SVG Export Plug-In . SVG Version: 6.00 Build 0)  -->
<svg version="1.1" id="Livello_1" xmlns="http://www.w3.org/2000/svg" xmlns:xlink="http://www.w3.org/1999/xlink" x="0px" y="0px"
	 viewBox="0 0 363.154 187.854" enable-background="new 0 0 363.154 187.854" xml:space="preserve">
<g>
	<g>
		<path fill="#fa730a" d="M36.46,29.81c-1.257-2.732-2.549-4.71-3.879-5.929c-1.329-1.219-2.882-1.828-4.654-1.828
			c-1.479,0-2.659,0.407-3.546,1.219c-0.887,0.814-1.329,1.959-1.329,3.436c0,1.847,0.775,3.419,2.328,4.71
			c1.551,1.293,3.49,2.513,5.818,3.657c2.328,1.147,4.856,2.365,7.592,3.658c2.732,1.293,5.264,2.864,7.592,4.71
			c2.328,1.847,4.267,4.1,5.818,6.76c1.551,2.66,2.328,5.949,2.328,9.863c0,3.917-0.61,7.408-1.828,10.473
			c-1.219,3.067-2.974,5.671-5.264,7.813c-2.291,2.144-5.062,3.787-8.312,4.932c-3.252,1.145-6.909,1.718-10.971,1.718
			c-3.917,0-7.463-0.573-10.639-1.718c-3.178-1.145-5.967-2.715-8.368-4.71c-2.402-1.995-4.36-4.303-5.874-6.926
			C1.754,69.024,0.665,66.235,0,63.278l15.293-9.641c0.516,1.922,1.145,3.767,1.884,5.541c0.737,1.774,1.643,3.325,2.715,4.654
			c1.07,1.33,2.328,2.382,3.768,3.159c1.441,0.776,3.047,1.164,4.821,1.164c1.92,0,3.507-0.46,4.765-1.385
			c1.255-0.924,1.884-2.494,1.884-4.71c0-2.142-0.758-3.934-2.272-5.375c-1.516-1.441-3.419-2.771-5.707-3.99
			c-2.291-1.219-4.748-2.474-7.369-3.768c-2.623-1.291-5.081-2.862-7.369-4.71c-2.291-1.846-4.194-4.137-5.707-6.871
			c-1.516-2.732-2.272-6.168-2.272-10.307c0-2.954,0.535-5.743,1.607-8.367c1.07-2.622,2.605-4.893,4.599-6.815
			c1.995-1.92,4.394-3.436,7.203-4.544c2.807-1.108,5.947-1.662,9.42-1.662c5.91,0,10.73,1.146,14.462,3.436
			c3.731,2.291,6.852,5.984,9.364,11.082L36.46,29.81z"/>
		<path fill="#fa730a" d="M78.496,60.841c0.59,3.324,1.92,5.856,3.99,7.591c2.068,1.737,4.876,2.605,8.423,2.605
			c4.727,0,8.385-1.995,10.971-5.984l13.964,5.098c-2.365,4.36-5.635,7.923-9.808,10.694C101.86,83.615,96.411,85,89.689,85
			c-5.025,0-9.327-0.887-12.91-2.659c-3.584-1.774-6.503-4.045-8.755-6.815c-2.254-2.771-3.898-5.854-4.932-9.254
			c-1.035-3.398-1.551-6.76-1.551-10.085c0-3.324,0.571-6.686,1.718-10.085c1.145-3.398,2.899-6.483,5.264-9.254
			c2.363-2.771,5.32-5.042,8.866-6.815c3.546-1.774,7.719-2.659,12.523-2.659c5.024,0,9.272,0.887,12.745,2.659
			c3.471,1.774,6.278,4.027,8.423,6.76c2.141,2.734,3.675,5.726,4.599,8.977c0.923,3.252,1.385,6.355,1.385,9.309v5.763
			L78.496,60.841L78.496,60.841z M89.688,40.561c-2.291,0-4.452,0.685-6.483,2.051c-2.033,1.368-3.454,3.529-4.267,6.483h21.389
			c-0.371-2.363-1.46-4.377-3.269-6.039C95.247,41.392,92.791,40.561,89.688,40.561z"/>
		<path fill="#fa730a" d="M126.963,84.113V28.259h18.174v6.095c1.477-2.142,3.602-3.841,6.372-5.098
			c2.771-1.255,5.819-1.884,9.143-1.884c1.033,0,1.94,0.075,2.715,0.221c0.776,0.148,1.458,0.296,2.051,0.443v17.289
			c-0.814-0.516-1.903-0.904-3.269-1.164c-1.367-0.258-2.642-0.388-3.823-0.388c-1.626,0-3.214,0.371-4.765,1.108
			c-1.551,0.739-2.956,1.903-4.212,3.491c-1.256,1.589-2.272,3.695-3.047,6.316c-0.776,2.624-1.164,5.818-1.164,9.586v19.837
			C145.138,84.113,126.963,84.113,126.963,84.113z"/>
		<path fill="#fa730a" d="M172.714,10.861c0-1.551,0.277-2.973,0.832-4.267c0.554-1.291,1.31-2.438,2.272-3.436
			c0.96-0.997,2.106-1.773,3.436-2.328C180.582,0.277,182.023,0,183.574,0c1.551,0,2.991,0.277,4.321,0.831
			c1.329,0.554,2.475,1.33,3.436,2.328c0.959,0.997,1.718,2.144,2.272,3.436c0.554,1.293,0.832,2.715,0.832,4.267
			s-0.277,2.975-0.832,4.267c-0.554,1.293-1.312,2.438-2.272,3.436c-0.961,0.997-2.106,1.774-3.436,2.328
			c-1.33,0.554-2.771,0.831-4.321,0.831c-1.551,0-2.992-0.277-4.322-0.831c-1.329-0.554-2.476-1.33-3.436-2.328
			c-0.961-0.997-1.718-2.142-2.272-3.436C172.991,13.835,172.714,12.412,172.714,10.861z M192.662,28.259v55.854h-18.174V28.259
			H192.662z"/>
		<path fill="#fa730a" d="M218.397,60.841c0.59,3.324,1.92,5.856,3.99,7.591c2.068,1.737,4.876,2.605,8.423,2.605
			c4.727,0,8.385-1.995,10.971-5.984l13.964,5.098c-2.365,4.36-5.635,7.923-9.808,10.694C241.762,83.615,236.313,85,229.591,85
			c-5.025,0-9.327-0.887-12.91-2.659c-3.584-1.774-6.503-4.045-8.755-6.815c-2.254-2.771-3.898-5.854-4.932-9.254
			c-1.035-3.398-1.551-6.76-1.551-10.085c0-3.324,0.571-6.686,1.718-10.085c1.145-3.398,2.899-6.483,5.264-9.254
			c2.363-2.771,5.32-5.042,8.866-6.815c3.546-1.774,7.719-2.659,12.523-2.659c5.024,0,9.272,0.887,12.745,2.659
			c3.471,1.774,6.278,4.027,8.423,6.76c2.141,2.734,3.675,5.726,4.599,8.977c0.923,3.252,1.385,6.355,1.385,9.309v5.763
			L218.397,60.841L218.397,60.841z M229.59,40.561c-2.291,0-4.452,0.685-6.483,2.051c-2.033,1.368-3.454,3.529-4.267,6.483h21.389
			c-0.371-2.363-1.46-4.377-3.269-6.039C235.149,41.392,232.693,40.561,229.59,40.561z"/>
		<path fill="#fa730a" d="M285.043,27.373c4.358,0,8.052,0.85,11.082,2.549c3.028,1.701,5.466,3.953,7.314,6.76l-9.862,9.087
			c-2.438-3.25-5.247-4.876-8.423-4.876c-1.035,0-1.922,0.277-2.659,0.831c-0.739,0.554-1.108,1.312-1.108,2.272
			c0,1.035,0.499,1.959,1.497,2.771c0.997,0.814,2.677,1.626,5.043,2.438c2.732,0.887,5.208,1.793,7.425,2.715
			c2.216,0.925,4.101,1.995,5.652,3.214c1.551,1.219,2.751,2.734,3.602,4.544c0.849,1.811,1.274,4.045,1.274,6.705
			c0,2.513-0.461,4.895-1.385,7.148c-0.924,2.254-2.272,4.231-4.045,5.929c-1.773,1.701-3.934,3.048-6.483,4.045
			c-2.549,0.997-5.412,1.497-8.588,1.497c-3.178,0-6.022-0.408-8.533-1.22c-2.513-0.812-4.71-1.92-6.594-3.324
			c-1.884-1.403-3.529-3.029-4.932-4.876c-1.404-1.845-2.587-3.767-3.546-5.763l13.41-7.203c0.96,2.587,2.253,4.673,3.879,6.261
			c1.624,1.589,3.73,2.382,6.317,2.382c1.255,0,2.382-0.294,3.38-0.887c0.997-0.591,1.497-1.551,1.497-2.882
			c0-0.96-0.333-1.791-0.997-2.493c-0.665-0.701-1.57-1.33-2.715-1.884c-1.147-0.554-2.438-1.07-3.879-1.551
			c-1.441-0.479-2.936-1.053-4.489-1.718c-1.7-0.665-3.307-1.477-4.821-2.438c-1.516-0.96-2.827-2.086-3.934-3.38
			c-1.108-1.291-1.995-2.788-2.659-4.489c-0.665-1.699-0.997-3.657-0.997-5.874c0-2.142,0.443-4.192,1.329-6.151
			c0.887-1.957,2.161-3.694,3.824-5.209c1.662-1.514,3.675-2.715,6.039-3.602C279.317,27.817,282.013,27.373,285.043,27.373z"/>
	</g>
	<path d="M334.011,5.295h13.05c0,26.346,0,52.701,0,79.068h-13.05C334.006,58.002,334.006,31.646,334.011,5.295z"/>
	<g>
		<g>
			<path d="M363.154,146.808c-5.352,0-10.702,0-16.053,0c0-5.351,0-10.703,0-16.053h-13.05c-0.002,5.35-0.002,10.702-0.003,16.053
				c-5.352,0-10.704,0-16.054,0v13.05c5.351,0.002,10.702,0.002,16.054,0.003c0.001,5.351,0.001,10.702,0.003,16.054h13.05
				c0-5.352,0-10.703,0-16.054c5.351-0.001,10.701-0.001,16.053-0.003V146.808z"/>
			<path d="M283.23,121.248c3.888-1.752,8.423-1.239,11.822,1.336c4.237,3.339,6.034,8.697,7.469,13.687
				c2.556,10.336,2.925,21.093,1.082,31.581c-0.484,3.071-2.303,6.648-5.719,7.07c-2.554,0.279-4.851-1.565-5.129-4.119
				c-0.002-0.019-0.004-0.038-0.006-0.057c-0.606-7.078,1.965-14.186,0.361-21.21c-0.438-2.303-2.764-4.314-5.151-3.754
				c-3.071,0.998-5.105,3.838-6.609,6.556c-3.14,5.949-4.944,12.482-6.978,18.861c-1.397,4.606-3.654,9.45-8.083,11.853
				c-7.262,3.938-17.579,3.117-22.807-3.769c-4.514-6.141-7.569-13.211-11.76-19.56c-1.121-1.428-2.671-3.6-4.782-2.833
				c-2.065,0.56-2.595,2.994-2.595,4.859c0.315,6.955,3.677,13.273,4.813,20.066c0.66,2.764-1.121,6.479-4.391,5.995
				c-3.071,0.353-4.913-2.602-5.957-5.036c-4.606-11.269-7.093-23.851-4.491-35.918c1.198-5.565,3.071-11.377,7.385-15.353
				s11.622-4.836,16.336-1.052c6.725,5.228,9.557,13.687,15.223,19.813c3.124,3.462,9.158,3.631,11.96-0.307
				C271.339,140.616,271.738,126.261,283.23,121.248z"/>
		</g>
		<g>
			<path d="M134.292,161.269c0,2.196-0.275,4.201-0.823,6.018c-0.549,1.817-1.373,3.369-2.469,4.656
				c-1.098,1.287-2.461,2.29-4.088,3.009c-1.628,0.719-3.52,1.079-5.677,1.079c-1.439,0-2.792-0.313-4.059-0.937
				c-1.268-0.625-2.224-1.334-2.867-2.129v14.193h-7.041v-40.196h7.04v2.952c0.189-0.378,0.491-0.766,0.909-1.164
				c0.416-0.397,0.927-0.766,1.533-1.107c0.605-0.341,1.286-0.615,2.044-0.823c0.756-0.208,1.57-0.313,2.441-0.313
				c2.157,0,4.05,0.36,5.677,1.079c1.627,0.72,2.99,1.723,4.088,3.009c1.097,1.287,1.921,2.839,2.469,4.655
				C134.017,157.067,134.292,159.074,134.292,161.269z M126.911,161.269c0-2.839-0.644-5.005-1.93-6.5
				c-1.288-1.494-2.858-2.242-4.713-2.242c-1.855,0-3.417,0.748-4.684,2.242c-1.268,1.496-1.902,3.662-1.902,6.5
				c0,2.839,0.633,5.006,1.902,6.5c1.268,1.496,2.829,2.242,4.684,2.242c1.854,0,3.425-0.747,4.713-2.242
				C126.268,166.275,126.911,164.107,126.911,161.269z"/>
			<path d="M138.642,161.269c0-2.081,0.321-4.021,0.965-5.819c0.643-1.797,1.589-3.358,2.839-4.684
				c1.249-1.324,2.772-2.365,4.57-3.122c1.797-0.756,3.851-1.136,6.16-1.136c2.308,0,4.362,0.379,6.16,1.136
				c1.797,0.757,3.322,1.798,4.571,3.122c1.249,1.326,2.195,2.887,2.839,4.684c0.643,1.798,0.965,3.738,0.965,5.819
				c0,2.082-0.322,4.022-0.965,5.819c-0.645,1.799-1.589,3.36-2.839,4.684c-1.249,1.325-2.774,2.366-4.571,3.122
				c-1.798,0.756-3.852,1.136-6.16,1.136c-2.309,0-4.362-0.379-6.16-1.136s-3.322-1.797-4.57-3.122
				c-1.249-1.324-2.196-2.885-2.839-4.684C138.962,165.291,138.642,163.351,138.642,161.269z M146.022,161.269
				c0,1.174,0.161,2.291,0.483,3.35c0.321,1.06,0.786,1.987,1.391,2.782c0.605,0.795,1.353,1.429,2.242,1.902
				c0.889,0.474,1.902,0.71,3.037,0.71c1.136,0,2.148-0.236,3.038-0.71c0.889-0.473,1.636-1.107,2.242-1.902
				c0.605-0.795,1.069-1.722,1.391-2.782c0.321-1.059,0.483-2.176,0.483-3.35c0-1.173-0.161-2.29-0.483-3.35
				c-0.322-1.059-0.786-1.987-1.391-2.782c-0.606-0.795-1.354-1.428-2.242-1.902c-0.89-0.473-1.902-0.71-3.038-0.71
				c-1.136,0-2.148,0.237-3.037,0.71c-0.89,0.474-1.638,1.107-2.242,1.902c-0.606,0.795-1.07,1.723-1.391,2.782
				C146.182,158.979,146.022,160.096,146.022,161.269z"/>
			<path d="M172.825,175.576v-28.615h7.04v4.656c1.022-1.704,2.28-2.98,3.775-3.833c1.495-0.851,3.056-1.278,4.684-1.278
				c0.303,0,0.653,0.02,1.051,0.057c0.398,0.038,0.766,0.095,1.107,0.17v6.87c-0.871-0.53-1.855-0.795-2.952-0.795
				c-1.022,0-1.997,0.227-2.924,0.681c-0.928,0.454-1.741,1.173-2.441,2.157c-0.7,0.985-1.258,2.281-1.675,3.889
				c-0.417,1.609-0.625,3.568-0.625,5.876v10.162L172.825,175.576L172.825,175.576z"/>
		</g>
	</g>
</g>
</svg>
