<?xml version="1.0" encoding="UTF-8"?>
<!-- Generator: Adobe Illustrator 27.4.0, SVG Export Plug-In . SVG Version: 6.00 Build 0)  -->
<svg version="1.1" id="Livello_1" xmlns="http://www.w3.org/2000/svg" xmlns:xlink="http://www.w3.org/1999/xlink" x="0px" y="0px" viewBox="0 0 424.1 150.5" style="enable-background:new 0 0 424.1 150.5;" xml:space="preserve">
<style type="text/css">
	.st0{fill:url(#SVGID_1_);}
	.st1{fill:url(#SVGID_00000035532304836528504690000013308936429622335370_);}
	.st2{fill:url(#SVGID_00000133499558588474768690000015559844890857013654_);}
	.st3{fill:url(#SVGID_00000122716124850552728940000014206359779848900504_);}
	.st4{fill:url(#SVGID_00000111912521175147015820000008333720575815717821_);}
	.st5{fill:url(#SVGID_00000119077361666896468040000015634138890672690341_);}
	.st6{fill:url(#SVGID_00000182518822230094785230000001256182865507158182_);}
	.st7{fill:url(#SVGID_00000154426145824830801670000010635271837670837132_);}
</style>
<g>
	<path d="M400.1,0h11v65.2h-11V0z"/>
	<g>
		<g>
			<path d="M358.2,95.5c3.2-1.4,7-1,9.8,1.1c3.5,2.8,5,7.2,6.2,11.3c2.1,8.5,2.4,17.4,0.9,26.1c-0.4,2.5-1.9,5.5-4.7,5.8     c-2.1,0.2-4-1.3-4.2-3.4l0,0c-0.5-5.8,1.6-11.7,0.3-17.5c-0.4-1.9-2.3-3.6-4.3-3.1c-2.5,0.8-4.2,3.2-5.5,5.4     c-2.6,4.9-4.1,10.3-5.8,15.6c-1.2,3.8-3,7.8-6.7,9.8c-6,3.3-14.5,2.6-18.8-3.1c-3.7-5.1-6.3-10.9-9.7-16.2c-0.9-1.2-2.2-3-4-2.3     c-1.7,0.5-2.1,2.5-2.1,4c0.3,5.7,3,11,4,16.6c0.5,2.3-0.9,5.4-3.6,5c-2.5,0.3-4.1-2.1-4.9-4.2c-3.8-9.3-5.9-19.7-3.7-29.7     c1-4.6,2.5-9.4,6.1-12.7c3.6-3.3,9.6-4,13.5-0.9c5.6,4.3,7.9,11.3,12.6,16.4c2.6,2.9,7.6,3,9.9-0.3     C348.4,111.5,348.7,99.6,358.2,95.5z"/>
			<path d="M400.1,103.3h11v13.2h13v10.7h-13c0,4.4,0,8.8,0,13.2h-10.9v-13.2H387v-10.7h13.2L400.1,103.3L400.1,103.3z"/>
		</g>
		<g>
			<path d="M235.6,128.4c0,1.8-0.2,3.5-0.7,5s-1.1,2.8-2,3.9c-0.9,1.1-2,1.9-3.4,2.5s-2.9,0.9-4.7,0.9c-1.2,0-2.3-0.3-3.4-0.8     c-1.1-0.5-1.8-1.1-2.4-1.8v11.7h-5.8v-33.3h5.8v2.4c0.2-0.3,0.4-0.6,0.8-1c0.3-0.3,0.8-0.6,1.3-0.9s1.1-0.5,1.7-0.7     c0.6-0.2,1.3-0.3,2-0.3c1.8,0,3.4,0.3,4.7,0.9s2.5,1.4,3.4,2.5s1.6,2.3,2,3.9C235.4,124.9,235.6,126.6,235.6,128.4z M229.5,128.4     c0-2.3-0.5-4.1-1.6-5.4c-1.1-1.2-2.4-1.9-3.9-1.9s-2.8,0.6-3.9,1.9c-1.1,1.2-1.6,3-1.6,5.4c0,2.4,0.5,4.1,1.6,5.4     c1,1.2,2.3,1.9,3.9,1.9c1.5,0,2.8-0.6,3.9-1.9C228.9,132.5,229.5,130.7,229.5,128.4z"/>
			<path d="M239,128.4c0-1.7,0.3-3.3,0.8-4.8s1.3-2.8,2.3-3.9s2.3-2,3.8-2.6s3.2-0.9,5.1-0.9s3.6,0.3,5.1,0.9     c1.5,0.6,2.7,1.5,3.8,2.6c1,1.1,1.8,2.4,2.3,3.9s0.8,3.1,0.8,4.8c0,1.7-0.3,3.3-0.8,4.8s-1.3,2.8-2.3,3.9c-1,1.1-2.3,2-3.8,2.6     s-3.2,0.9-5.1,0.9c-1.9,0-3.6-0.3-5.1-0.9c-1.5-0.6-2.7-1.5-3.8-2.6c-1-1.1-1.8-2.4-2.3-3.9C239.2,131.7,239,130.1,239,128.4z      M245.1,128.4c0,1,0.1,1.9,0.4,2.8s0.6,1.6,1.2,2.3s1.1,1.2,1.9,1.6c0.7,0.4,1.6,0.6,2.5,0.6s1.8-0.2,2.5-0.6     c0.7-0.4,1.4-0.9,1.9-1.6c0.5-0.7,0.9-1.4,1.2-2.3c0.3-0.9,0.4-1.8,0.4-2.8s-0.1-1.9-0.4-2.8s-0.6-1.6-1.2-2.3     c-0.5-0.7-1.1-1.2-1.9-1.6c-0.7-0.4-1.6-0.6-2.5-0.6s-1.8,0.2-2.5,0.6s-1.4,0.9-1.9,1.6s-0.9,1.4-1.2,2.3     C245.2,126.5,245.1,127.4,245.1,128.4z"/>
			<path d="M267,140.2v-23.7h5.8v3.9c0.8-1.4,1.9-2.5,3.1-3.2s2.5-1.1,3.9-1.1c0.3,0,0.5,0,0.9,0c0.3,0,0.6,0.1,0.9,0.1v5.7     c-0.7-0.4-1.5-0.7-2.4-0.7c-0.8,0-1.7,0.2-2.4,0.6s-1.4,1-2,1.8s-1,1.9-1.4,3.2c-0.3,1.3-0.5,3-0.5,4.9v8.4L267,140.2L267,140.2z     "/>
		</g>
	</g>
</g>
<g>
	<linearGradient id="SVGID_1_" gradientUnits="userSpaceOnUse" x1="0.152" y1="33.4" x2="386.0293" y2="33.4">
		<stop offset="0" style="stop-color:#FA3732"/>
		<stop offset="1" style="stop-color:#FA730A"/>
	</linearGradient>
	<path class="st0" d="M29.7,20.7c-1-2.2-2.1-3.8-3.2-4.8s-2.3-1.5-3.8-1.5c-1.2,0-2.2,0.3-2.9,1c-0.7,0.7-1.1,1.6-1.1,2.8   c0,1.5,0.6,2.8,1.9,3.8c1.3,1.1,2.8,2,4.7,3c1.9,0.9,4,1.9,6.2,3s4.3,2.3,6.2,3.8s3.5,3.3,4.7,5.5c1.3,2.2,1.9,4.8,1.9,8   s-0.5,6-1.5,8.5s-2.4,4.6-4.3,6.4c-1.9,1.7-4.1,3.1-6.8,4c-2.6,0.9-5.6,1.4-8.9,1.4c-3.2,0-6.1-0.5-8.7-1.4S9.2,62,7.3,60.4   c-2-1.6-3.5-3.5-4.8-5.6c-1.1-2.2-2-4.4-2.5-6.8l12.4-7.8c0.4,1.6,0.9,3.1,1.5,4.5s1.3,2.7,2.2,3.8c0.9,1.1,1.9,1.9,3.1,2.6   c1.2,0.6,2.5,0.9,3.9,0.9c1.6,0,2.9-0.4,3.9-1.1c1-0.8,1.5-2,1.5-3.8c0-1.7-0.6-3.2-1.8-4.4c-1.2-1.2-2.8-2.3-4.6-3.2   c-1.9-1-3.9-2-6-3.1s-4.1-2.3-6-3.8S6.7,29.2,5.5,27s-1.8-5-1.8-8.4c0-2.4,0.4-4.7,1.3-6.8s2.1-4,3.7-5.5c1.6-1.6,3.6-2.8,5.9-3.7   s4.8-1.4,7.7-1.4c4.8,0,8.7,0.9,11.8,2.8c3,1.9,5.6,4.9,7.6,9L29.7,20.7z"/>
	
		<linearGradient id="SVGID_00000082332986761719045260000006167333972180892060_" gradientUnits="userSpaceOnUse" x1="0.152" y1="42.55" x2="386.0293" y2="42.55">
		<stop offset="0" style="stop-color:#FA3732"/>
		<stop offset="1" style="stop-color:#FA730A"/>
	</linearGradient>
	<path style="fill:url(#SVGID_00000082332986761719045260000006167333972180892060_);" d="M79,64.9v-5.2c-1.2,1.7-2.9,3.1-5,4.2   c-2.1,1.1-4.8,1.7-7.8,1.7c-4.9,0-8.7-1.4-11.3-4.1c-2.6-2.7-3.9-6.8-3.9-12.3V19.5h14.8V46c0,2.1,0.5,3.7,1.4,4.8s2.2,1.7,3.8,1.7   c2.5,0,4.5-1.1,5.9-3.3s2.2-5.5,2.2-9.8V19.5h14.8v45.4H79z"/>
	
		<linearGradient id="SVGID_00000108276363562110594190000002753700755139387826_" gradientUnits="userSpaceOnUse" x1="0.152" y1="42.15" x2="386.0293" y2="42.15">
		<stop offset="0" style="stop-color:#FA3732"/>
		<stop offset="1" style="stop-color:#FA730A"/>
	</linearGradient>
	<path style="fill:url(#SVGID_00000108276363562110594190000002753700755139387826_);" d="M118.4,18.7c3.5,0,6.5,0.7,9,2.1   c2.5,1.4,4.4,3.2,5.9,5.5l-8,7.4c-2-2.6-4.3-4-6.9-4c-0.8,0-1.6,0.2-2.2,0.7s-0.9,1.1-0.9,1.8c0,0.8,0.4,1.6,1.2,2.3   c0.8,0.7,2.2,1.3,4.1,2c2.2,0.7,4.2,1.5,6,2.2c1.8,0.8,3.3,1.6,4.6,2.6s2.2,2.2,2.9,3.7s1,3.3,1,5.5c0,2-0.4,4-1.1,5.8   c-0.8,1.8-1.8,3.4-3.3,4.8c-1.4,1.4-3.2,2.5-5.3,3.3c-2.1,0.8-4.4,1.2-7,1.2s-4.9-0.3-6.9-1c-2-0.7-3.8-1.6-5.4-2.7   c-1.5-1.1-2.9-2.5-4-4s-2.1-3.1-2.9-4.7l10.9-5.9c0.8,2.1,1.8,3.8,3.2,5.1c1.3,1.3,3,1.9,5.1,1.9c1,0,1.9-0.2,2.7-0.7   c0.8-0.5,1.2-1.3,1.2-2.3c0-0.8-0.3-1.5-0.8-2c-0.5-0.6-1.3-1.1-2.2-1.5c-0.9-0.5-2-0.9-3.2-1.3c-1.2-0.4-2.4-0.9-3.7-1.4   c-1.4-0.5-2.7-1.2-3.9-2c-1.2-0.8-2.3-1.7-3.2-2.7c-0.9-1.1-1.6-2.3-2.2-3.7c-0.5-1.4-0.8-3-0.8-4.8c0-1.7,0.4-3.4,1.1-5   s1.8-3,3.1-4.2c1.4-1.2,3-2.2,4.9-2.9C113.7,19.1,115.9,18.7,118.4,18.7z"/>
	
		<linearGradient id="SVGID_00000026852433410336516610000011272984978355616958_" gradientUnits="userSpaceOnUse" x1="0.152" y1="51.05" x2="386.0293" y2="51.05">
		<stop offset="0" style="stop-color:#FA3732"/>
		<stop offset="1" style="stop-color:#FA730A"/>
	</linearGradient>
	<path style="fill:url(#SVGID_00000026852433410336516610000011272984978355616958_);" d="M187.4,42.2c0,3.6-0.5,6.9-1.6,9.8   c-1.1,2.9-2.5,5.4-4.4,7.4s-4.1,3.6-6.6,4.6c-2.6,1.1-5.3,1.6-8.3,1.6c-4.6,0-7.9-1.1-9.9-3.4v21.1h-14.8V19.5h14.8v3.9   c1.3-1.4,2.9-2.6,4.7-3.4s4-1.2,6.7-1.2c2.9,0,5.5,0.5,7.9,1.6s4.4,2.6,6.1,4.6c1.7,2,3,4.5,4,7.4   C186.9,35.3,187.4,38.6,187.4,42.2z M173,42.2c0-3.8-0.8-6.5-2.4-8.2c-1.6-1.7-3.7-2.6-6.1-2.6c-2.5,0-4.5,0.9-6.1,2.6   s-2.4,4.5-2.4,8.2c0,3.8,0.8,6.5,2.4,8.2c1.6,1.7,3.7,2.6,6.1,2.6c2.5,0,4.5-0.9,6.1-2.6C172.2,48.7,173,46,173,42.2z"/>
	
		<linearGradient id="SVGID_00000132052756628207297110000004557149632722325680_" gradientUnits="userSpaceOnUse" x1="0.152" y1="42.2" x2="386.0293" y2="42.2">
		<stop offset="0" style="stop-color:#FA3732"/>
		<stop offset="1" style="stop-color:#FA730A"/>
	</linearGradient>
	<path style="fill:url(#SVGID_00000132052756628207297110000004557149632722325680_);" d="M206,46c0.5,2.7,1.6,4.8,3.2,6.2   c1.7,1.4,4,2.1,6.9,2.1c3.8,0,6.8-1.6,8.9-4.9l11.4,4.1c-1.9,3.5-4.6,6.4-8,8.7c-3.4,2.3-7.8,3.4-13.3,3.4c-4.1,0-7.6-0.7-10.5-2.2   c-2.9-1.4-5.3-3.3-7.1-5.5c-1.8-2.3-3.2-4.8-4-7.5c-0.8-2.8-1.3-5.5-1.3-8.2s0.5-5.4,1.4-8.2s2.4-5.3,4.3-7.5   c1.9-2.3,4.3-4.1,7.2-5.5s6.3-2.2,10.2-2.2c4.1,0,7.5,0.7,10.4,2.2c2.8,1.4,5.1,3.3,6.8,5.5s3,4.7,3.7,7.3c0.8,2.6,1.1,5.2,1.1,7.6   V46H206z M215.1,29.5c-1.9,0-3.6,0.6-5.3,1.7c-1.7,1.1-2.8,2.9-3.5,5.3h17.4c-0.3-1.9-1.2-3.6-2.7-4.9   C219.7,30.2,217.7,29.5,215.1,29.5z"/>
	
		<linearGradient id="SVGID_00000080172343123953576060000014768192953159026361_" gradientUnits="userSpaceOnUse" x1="0.152" y1="41.8" x2="386.0293" y2="41.8">
		<stop offset="0" style="stop-color:#FA3732"/>
		<stop offset="1" style="stop-color:#FA730A"/>
	</linearGradient>
	<path style="fill:url(#SVGID_00000080172343123953576060000014768192953159026361_);" d="M259.3,19.5v5.2c1.2-1.7,2.9-3.2,5.2-4.3   c2.3-1.1,4.8-1.7,7.7-1.7c5.2,0,9.1,1.3,11.5,3.9s3.7,6.3,3.7,11v31.2h-14.8V38c0-1.9-0.5-3.4-1.4-4.5s-2.2-1.6-3.8-1.6   c-2.5,0-4.5,1.1-5.9,3.3s-2.2,5.5-2.2,9.8v19.9h-14.8V19.5H259.3z"/>
	
		<linearGradient id="SVGID_00000059290502908355010410000002035259139532660915_" gradientUnits="userSpaceOnUse" x1="0.152" y1="42.15" x2="386.0293" y2="42.15">
		<stop offset="0" style="stop-color:#FA3732"/>
		<stop offset="1" style="stop-color:#FA730A"/>
	</linearGradient>
	<path style="fill:url(#SVGID_00000059290502908355010410000002035259139532660915_);" d="M311.5,18.7c3.5,0,6.5,0.7,9,2.1   s4.4,3.2,5.9,5.5l-8,7.4c-2-2.6-4.3-4-6.8-4c-0.8,0-1.6,0.2-2.2,0.7s-0.9,1.1-0.9,1.8c0,0.8,0.4,1.6,1.2,2.3c0.8,0.7,2.2,1.3,4.1,2   c2.2,0.7,4.2,1.5,6,2.2c1.8,0.8,3.3,1.6,4.6,2.6c1.3,1,2.2,2.2,2.9,3.7c0.7,1.5,1,3.3,1,5.5c0,2-0.4,4-1.1,5.8   c-0.8,1.8-1.8,3.4-3.3,4.8c-1.4,1.4-3.2,2.5-5.3,3.3c-2.1,0.8-4.4,1.2-7,1.2s-4.9-0.3-6.9-1c-2-0.7-3.8-1.6-5.4-2.7   c-1.5-1.1-2.9-2.5-4-4s-2.1-3.1-2.9-4.7l10.9-5.9c0.8,2.1,1.8,3.8,3.2,5.1c1.3,1.3,3,1.9,5.1,1.9c1,0,1.9-0.2,2.8-0.7   c0.8-0.5,1.2-1.3,1.2-2.3c0-0.8-0.3-1.5-0.8-2c-0.5-0.6-1.3-1.1-2.2-1.5c-0.9-0.5-2-0.9-3.2-1.3c-1.2-0.4-2.4-0.9-3.7-1.4   c-1.4-0.5-2.7-1.2-3.9-2c-1.2-0.8-2.3-1.7-3.2-2.7c-0.9-1.1-1.6-2.3-2.2-3.7c-0.5-1.4-0.8-3-0.8-4.8c0-1.7,0.4-3.4,1.1-5   s1.8-3,3.1-4.2c1.4-1.2,3-2.2,4.9-2.9C306.8,19.1,309,18.7,311.5,18.7z"/>
	
		<linearGradient id="SVGID_00000141447318310570368910000013640227917337459111_" gradientUnits="userSpaceOnUse" x1="0.152" y1="42.2" x2="386.0293" y2="42.2">
		<stop offset="0" style="stop-color:#FA3732"/>
		<stop offset="1" style="stop-color:#FA730A"/>
	</linearGradient>
	<path style="fill:url(#SVGID_00000141447318310570368910000013640227917337459111_);" d="M346.1,46c0.5,2.7,1.6,4.8,3.2,6.2   c1.7,1.4,4,2.1,6.9,2.1c3.8,0,6.8-1.6,8.9-4.9l11.4,4.1c-1.9,3.5-4.6,6.4-8,8.7c-3.4,2.3-7.8,3.4-13.3,3.4c-4.1,0-7.6-0.7-10.5-2.2   c-2.9-1.4-5.3-3.3-7.1-5.5c-1.8-2.3-3.2-4.8-4-7.5c-0.8-2.8-1.3-5.5-1.3-8.2s0.5-5.4,1.4-8.2s2.4-5.3,4.3-7.5   c1.9-2.3,4.3-4.1,7.2-5.5c2.9-1.4,6.3-2.2,10.2-2.2c4.1,0,7.5,0.7,10.4,2.2c2.8,1.4,5.1,3.3,6.9,5.5c1.7,2.2,3,4.7,3.7,7.3   c0.8,2.6,1.1,5.2,1.1,7.6V46H346.1z M355.2,29.5c-1.9,0-3.6,0.6-5.3,1.7c-1.7,1.1-2.8,2.9-3.5,5.3h17.4c-0.3-1.9-1.2-3.6-2.7-4.9   C359.7,30.2,357.7,29.5,355.2,29.5z"/>
</g>
</svg>