<?xml version="1.0" encoding="UTF-8" standalone="no"?>
<svg
   id="svg2"
   version="1.0"
   xml:space="preserve"
   viewBox="0 0 2785.9993 1738.4412"
   xmlns:xlink="http://www.w3.org/1999/xlink"
   xmlns="http://www.w3.org/2000/svg"
   xmlns:svg="http://www.w3.org/2000/svg"><defs
     id="defs5"><linearGradient
       id="linearGradient13"><stop
         style="stop-color:#1082ec"
         offset="0"
         id="stop12" /><stop
         style="stop-color:#039dfa"
         offset="0.79200387"
         id="stop14" /><stop
         style="stop-color:#09a5f1"
         offset="1"
         id="stop13" /></linearGradient><linearGradient
       id="linearGradient11"><stop
         style="stop-color:#235edb"
         offset="0"
         id="stop10" /><stop
         style="stop-color:#0093f7"
         offset="1"
         id="stop11" /></linearGradient><linearGradient
       id="linearGradient9"><stop
         style="stop-color:#2c49c3"
         offset="0"
         id="stop8" /><stop
         style="stop-color:#1973dd"
         offset="1"
         id="stop9" /></linearGradient><linearGradient
       xlink:href="#linearGradient1161"
       id="linearGradient3520"
       gradientUnits="userSpaceOnUse"
       gradientTransform="translate(7991.4092,-7484.0182)"
       x1="475.01208"
       y1="29234.521"
       x2="-1343.6307"
       y2="29445.83" /><linearGradient
       id="linearGradient1161"><stop
         id="stop1157"
         offset="0"
         style="stop-color:#0b7eda" /><stop
         id="stop1159"
         offset="1"
         style="stop-color:#4629c5" /></linearGradient><filter
       style="color-interpolation-filters:sRGB"
       id="filter1680-0-6"
       x="-0.28075902"
       width="1.561518"
       y="-0.33195723"
       height="1.6639145"><feGaussianBlur
         stdDeviation="331.22039"
         id="feGaussianBlur1682-3-9" /></filter><linearGradient
       xlink:href="#linearGradient9"
       id="linearGradient8"
       gradientUnits="userSpaceOnUse"
       gradientTransform="matrix(0.9732168,0,0,0.97379556,52.610695,16.777118)"
       x1="1851.3834"
       y1="968.85522"
       x2="2104.595"
       y2="730.45013" /><linearGradient
       xlink:href="#linearGradient11"
       id="linearGradient10"
       gradientUnits="userSpaceOnUse"
       gradientTransform="matrix(0.9732168,0,0,0.97379556,409.03404,16.777118)"
       x1="1838.4564"
       y1="1065.7507"
       x2="2127.2173"
       y2="788.5874" /><linearGradient
       xlink:href="#linearGradient13"
       id="linearGradient12"
       gradientUnits="userSpaceOnUse"
       gradientTransform="matrix(0.9732168,0,0,0.97379556,752.23323,15.91714)"
       x1="1799.6752"
       y1="1015.1497"
       x2="2027.0482"
       y2="827.00342" /></defs><g
     id="layer1"
     transform="matrix(5.8862959,0,0,5.8862959,-228.3949,1412.9899)"><path
       id="path1097-6-1"
       d="M 6416.0915,21026.021 C 6865.8972,20468.073 7548.0748,20483.744 7911.3241,20444.378 8213.8446,20411.594 8509.0819,20423.063 8669.0634,20597.328 8837.1385,20780.411 8893.1923,21068.609 8954.123,21293.5 9119.4588,21903.74 8859.5657,22560.21 8007.4465,22678.477 7482.7758,22751.297 6742.0707,23129.152 6327.8653,22275.723 6012.8479,21740.515 6236.2697,21217.114 6416.0915,21026.021 Z"
       style="fill:url(#linearGradient3520);stroke-width:16.6;filter:url(#filter1680-0-6)"
       transform="matrix(0.07412091,0,0,0.07412091,-359.59058,-1695.4044)" /><path
       style="fill:#ffffff;stroke-width:0.158852"
       d="M 182.09151,-41.203676 C 181.78763,-41.366696 181.4017,-41.771575 181.22044,-42.117137 180.92088,-42.688042 180.89012,-43.070906 180.84152,-46.879305 180.77362,-52.258455 180.92252,-53.092396 182.11889,-53.985548 182.47621,-54.25274 187.23445,-55.917876 194.51639,-58.324449 L 196.70057,-59.046281 V -91.686948 C 196.70057,-117.75625 196.66287,-124.30346 196.50194,-124.20915 196.39241,-124.14395 194.41012,-122.66303 192.09573,-120.91774 189.78175,-119.17223 187.57722,-117.60673 187.19689,-117.43865 185.80109,-116.82105 185.42968,-117.16877 182.85962,-121.49756 181.70824,-123.43668 180.23255,-125.91671 179.58008,-127.00905 176.88334,-131.52257 176.68777,-132.05494 177.36028,-133.05124 177.78507,-133.68039 177.50494,-133.47873 188.5319,-141.10283 193.33046,-144.42064 198.66885,-148.11364 200.39482,-149.30977 202.12095,-150.50563 203.80071,-151.64223 204.12782,-151.83559 204.70591,-152.17726 204.87781,-152.18858 210.28249,-152.23986 216.94003,-152.30356 217.33988,-152.26676 218.12298,-151.5502 L 218.70157,-151.02015 218.73937,-105.09669 218.78247,-59.173554 219.29793,-58.940915 C 219.58132,-58.814048 222.24368,-57.814743 225.21437,-56.722247 231.69285,-54.339964 232.53646,-53.943019 232.98883,-53.063516 233.29813,-52.462431 233.31594,-52.162741 233.31594,-47.503719 233.31594,-42.049505 233.29974,-41.947593 232.29962,-41.274774 L 231.75978,-40.911502 H 207.1986 C 183.64475,-40.911502 182.61493,-40.927742 182.09178,-41.204056 Z"
       id="path1614-3-1" /></g><path
     style="fill:url(#linearGradient8)"
     d="M 2072.8587,726.85979 2097.7549,718.26604 C 2101.8861,716.85188 2102.9733,715.00259 2102.9733,710.65132 V 688.78619 C 2102.9733,683.02075 2101.1251,681.17146 2095.3632,681.17146 H 1977.5055 C 1971.7435,681.17146 1969.8953,683.02075 1969.8953,688.78619 V 710.65132 C 1969.8953,715.00259 1970.9824,716.85188 1975.1137,718.26604 L 2000.219,726.85979 V 928.106 C 2000.219,942.90031 2000.6622,962.48103 1994.574,976.40509 1992.3997,981.51783 1989.0295,986.08667 1985.007,990.0028 1982.2891,992.61357 1979.3536,995.00677 1976.0921,996.85606 1972.1784,999.24928 1967.8297,1000.9897 1963.3723,1002.2951 1956.7405,1004.0356 1949.8913,1004.797 1943.0421,1004.797 1936.0843,1004.797 1929.235,1004.0356 1922.6033,1002.2951 1918.1459,1000.9897 1913.7972,999.24928 1909.8834,996.85606 1906.622,995.00677 1903.6865,992.61357 1900.9686,990.0028 1897.0548,986.08667 1893.6846,981.51783 1891.4016,976.40509 1885.4221,962.48103 1886.566,942.90031 1886.566,928.106 V 726.85979 L 1910.662,718.26604 C 1914.7932,716.85188 1915.9891,715.00259 1915.9891,710.65132 V 688.78619 C 1915.9891,683.02075 1914.0322,681.17146 1908.3789,681.17146 H 1790.8121 C 1785.1588,681.17146 1783.2019,683.02075 1783.2019,688.78619 V 710.65132 C 1783.2019,715.00259 1784.289,716.85188 1788.5291,718.26604 L 1813.1253,726.85979 V 928.106 C 1813.1253,966.39717 1816.9303,1006.7551 1846.9362,1034.0593 1852.5895,1039.2809 1859.0038,1043.7409 1865.9618,1047.4395 1875.6376,1052.5522 1886.0744,1055.9244 1896.7287,1058.4265 1911.8403,1061.7987 1927.4957,1063.5392 1942.9335,1063.5392 1958.4799,1063.5392 1974.0265,1061.7987 1989.2469,1058.4265 1999.9012,1055.9244 2010.338,1052.5522 2020.0139,1047.4395 2026.863,1043.7409 2033.2773,1039.2809 2039.1481,1034.0593 2069.0453,1006.7551 2072.8587,966.28838 2072.8587,928.106 Z"
     id="text1" /><path
     style="fill:url(#linearGradient10)"
     d="M 2174.8065,1008.3041 2149.9029,1016.8953 C 2145.7704,1018.3091 2144.6829,1020.1578 2144.6829,1024.5078 V 1046.3664 C 2144.6829,1052.1301 2146.5317,1053.9789 2152.2954,1053.9789 H 2269.9622 C 2275.6172,1053.9789 2277.5747,1052.1301 2277.5747,1046.3664 V 1024.5078 C 2277.5747,1020.1578 2276.4872,1018.3091 2272.246,1016.8953 L 2247.3424,1008.3041 V 890.31111 H 2353.0468 V 1008.3041 L 2328.1432,1016.8953 C 2323.9019,1018.3091 2322.8145,1020.1578 2322.8145,1024.5078 V 1046.3664 C 2322.8145,1052.1301 2324.7719,1053.9789 2330.4269,1053.9789 H 2448.0938 C 2453.8575,1053.9789 2455.7062,1052.1301 2455.7062,1046.3664 V 1024.5078 C 2455.7062,1020.1578 2454.6187,1018.3091 2450.4862,1016.8953 L 2425.4739,1008.3041 V 726.64326 L 2450.4862,718.05206 C 2454.6187,716.63832 2455.7062,714.78958 2455.7062,710.4396 V 688.58097 C 2455.7062,682.81725 2453.8575,680.96851 2448.0938,680.96851 H 2330.4269 C 2324.7719,680.96851 2322.8145,682.81725 2322.8145,688.58097 V 710.4396 C 2322.8145,714.78958 2323.9019,716.63832 2328.1432,718.05206 L 2353.0468,726.64326 V 832.13018 H 2247.3424 V 726.64326 L 2272.246,718.05206 C 2276.4872,716.63832 2277.5747,714.78958 2277.5747,710.4396 V 688.58097 C 2277.5747,682.81725 2275.6172,680.96851 2269.9622,680.96851 H 2152.2954 C 2146.5317,680.96851 2144.6829,682.81725 2144.6829,688.58097 V 710.4396 C 2144.6829,714.78958 2145.7704,716.63832 2149.9029,718.05206 L 2174.8065,726.64326 Z"
     id="path9" /><path
     style="fill:url(#linearGradient12)"
     d="M 2531.0577,1006.2112 2504.6395,1015.3489 C 2500.5082,1016.763 2499.421,1018.6123 2499.421,1022.9636 V 1046.678 C 2499.421,1052.4434 2501.2692,1054.2927 2507.0312,1054.2927 H 2626.1851 C 2651.2988,1054.2927 2677.9345,1054.0752 2701.7435,1044.9375 2709.7886,1041.7828 2717.5075,1037.6491 2724.6828,1032.7539 2769.1481,1002.1863 2781.9767,946.70767 2785.1295,895.79782 2785.7818,886.33381 2785.9992,876.76103 2785.9992,867.18823 2785.9992,856.96275 2785.7818,846.84604 2785.1295,836.62057 2784.6946,830.09366 2784.1511,823.56676 2783.39,816.93107 2778.2803,771.78665 2763.8209,721.42071 2721.53,697.37994 2711.8542,691.83207 2701.3086,687.69837 2690.5456,685.08761 2670.6504,680.51878 2647.9286,681.17146 2627.8159,681.17146 H 2507.0312 C 2501.2692,681.17146 2499.421,683.02075 2499.421,688.78619 V 712.50061 C 2499.421,716.85188 2500.5082,718.70117 2504.6395,720.11533 L 2531.0577,729.25299 Z M 2603.8982,739.36969 H 2624.5543 C 2637.6004,739.36969 2651.2988,739.58726 2663.4751,744.48243 2667.2802,746.11417 2670.8679,748.07223 2674.2381,750.35665 2700.2214,768.41441 2705.7661,801.59284 2708.1578,831.0727 2708.5926,836.29422 2708.8101,841.51574 2709.0275,846.62848 2709.2449,853.48173 2709.3537,860.33498 2709.3537,867.07945 2709.3537,874.04148 2709.2449,881.00351 2709.0275,887.96555 2708.8101,894.05732 2708.484,900.1491 2707.9403,906.24087 2705.4399,935.72072 2700.004,969.55184 2672.4986,986.19544 2668.2586,988.69742 2663.4751,990.54671 2658.8002,991.96087 2647.7111,995.22433 2636.0784,996.09458 2624.5543,996.09458 H 2603.8982 Z"
     id="path11" /></svg>
