<?xml version="1.0" encoding="UTF-8" standalone="no"?>
<svg
   xmlns:dc="http://purl.org/dc/elements/1.1/"
   xmlns:cc="http://creativecommons.org/ns#"
   xmlns:rdf="http://www.w3.org/1999/02/22-rdf-syntax-ns#"
   xmlns:svg="http://www.w3.org/2000/svg"
   xmlns="http://www.w3.org/2000/svg"
   xmlns:xlink="http://www.w3.org/1999/xlink"
   id="svg980"
   version="1.1"
   viewBox="0 0 130.76257 127.44072"
   height="481.66571"
   width="494.22076">
  <defs
     id="defs974">
    <radialGradient
       gradientUnits="userSpaceOnUse"
       gradientTransform="matrix(1,0,0,0.94302082,0,37.651074)"
       r="151.39398"
       fy="626.737"
       fx="742.76965"
       cy="626.737"
       cx="742.76965"
       id="radialGradient978"
       xlink:href="#linearGradient948" />
    <linearGradient
       id="linearGradient948">
      <stop
         offset="0"
         style="stop-color:#1e81f2;stop-opacity:1"
         id="stop944" />
      <stop
         offset="1"
         style="stop-color:#8e1378;stop-opacity:1"
         id="stop946" />
    </linearGradient>
    <filter
       height="1.7818512"
       y="-0.39092562"
       width="1.4867796"
       x="-0.24338982"
       id="filter1021"
       style="color-interpolation-filters:sRGB">
      <feGaussianBlur
         id="feGaussianBlur1023"
         stdDeviation="20.377184" />
    </filter>
  </defs>
  <metadata
     id="metadata977">
    <rdf:RDF>
      <cc:Work
         rdf:about="">
        <dc:format>image/svg+xml</dc:format>
        <dc:type
           rdf:resource="http://purl.org/dc/dcmitype/StillImage" />
        <dc:title></dc:title>
      </cc:Work>
    </rdf:RDF>
  </metadata>
  <g
     transform="translate(100.91104,-36.732028)"
     id="layer1">
    <g
       id="g1574">
      <path
         style="fill:url(#radialGradient978);fill-opacity:1;stroke:none;stroke-width:0.09865777px;stroke-linecap:butt;stroke-linejoin:miter;stroke-opacity:1;filter:url(#filter1021)"
         d="m 587.33225,625.54107 c -13.16575,20.7439 -3.04096,83.67461 11.6614,99.19646 46.86677,39.51997 124.23273,19.58298 161.98274,-4.70708 23.77043,-23.03058 27.70275,-90.79052 9.97086,-113.00285 -37.42601,-36.56032 -154.9812,-26.60181 -183.615,18.51347 z"
         id="path869"
         transform="matrix(0.40385481,-0.03537128,0.03537128,0.40385481,-334.35142,-144.38448)" />
      <g
         id="g1564">
        <g
           transform="matrix(0.06209559,0,0,0.06209559,-98.29921,76.415556)"
           id="g1749"
           style="fill:#ffffff;fill-opacity:1">
          <path
             d="m 499.76829,222.62172 v 37.94512 c 0,7.37822 -3.13521,10.53494 -10.54569,10.53494 v 0 h -3.68911 c -17.92391,0 -26.33465,10.02405 -26.33465,31.62631 v 0 c 0,21.086 8.41074,31.12081 26.33465,31.12081 v 0 h 3.68911 c 7.41048,0 10.54569,3.15672 10.54569,10.52418 v 0 75.38474 c 0,75.37399 30.04527,113.83538 89.09253,113.83538 v 0 c 40.59633,0 62.72561,-14.21867 62.72561,-40.55332 v 0 c 0,-12.6645 -5.81868,-18.99407 -16.88063,-18.99407 v 0 c -4.23764,0 -8.41074,0.49475 -13.6809,1.05403 v 0 c -7.37284,1.07017 -14.22942,1.57567 -19.51033,1.57567 v 0 c -23.20482,0 -34.79379,-17.90777 -34.79379,-53.21782 v 0 -79.08461 c 0,-7.36746 3.17823,-10.52418 10.54569,-10.52418 v 0 H 595.185 c 18.46706,0 26.32927,-10.03481 26.32927,-32.19097 v 0 c 0,-20.5321 -8.41073,-30.55615 -26.32927,-30.55615 v 0 h -17.91853 c -7.91061,0 -10.54569,-2.61357 -10.54569,-10.53494 v 0 -37.94512 c 0,-17.91316 -10.54569,-26.36154 -34.27752,-26.36154 v 0 c -22.13466,0 -32.67497,8.44838 -32.67497,26.36154 m 297.83911,84.86564 -35.31004,101.70326 c -1.06479,4.22151 -3.72138,6.3457 -6.89423,6.3457 v 0 c -3.65684,0 -5.80793,-2.12419 -7.35671,-6.3457 v 0 L 712.74713,307.48736 c -10.54569,-30.58841 -17.92391,-37.96125 -39.56381,-37.96125 v 0 c -20.03197,0 -30.5454,7.91061 -30.5454,22.66705 v 0 c 0,3.69448 0.49475,6.33494 2.60819,11.59972 v 0 l 70.11459,189.247 c 10.54031,28.97511 18.99407,36.36408 40.04243,36.36408 v 0 c 21.08063,0 29.51825,-7.38897 40.06932,-36.36408 v 0 l 70.11459,-189.247 c 2.10806,-6.32419 2.6297,-7.90524 2.6297,-11.59972 v 0 c 0,-14.75644 -10.53494,-22.66705 -30.57228,-22.66705 v 0 c -21.60764,0 -29.49137,7.37284 -40.03706,37.96125 m 71.14711,132.32395 c 0,106.98417 52.71232,167.06395 146.53189,167.06395 v 0 c 57.4447,0 100.6653,-24.24272 100.6653,-55.86904 v 0 c 0,-12.11598 -6.3027,-20.0481 -15.2512,-20.0481 v 0 c -3.7213,0 -7.3943,1.09168 -15.8427,4.24301 v 0 c -24.7644,10.00792 -38.4721,13.15926 -58.5041,13.15926 v 0 c -56.41219,0 -90.67358,-32.12644 -90.67358,-84.33325 v 0 c 0,-5.2594 2.63507,-7.90524 8.94851,-7.90524 v 0 h 132.32927 c 35.3155,0 45.8719,-12.1106 45.8719,-52.19068 v 0 c 0,-80.11713 -48.0014,-133.88347 -119.6648,-133.88347 v 0 c -83.82775,0 -134.41049,63.80115 -134.41049,169.76356 m 68.00653,-44.31234 c 0,-45.30721 25.30212,-76.93352 62.7041,-76.93352 v 0 c 37.92896,0 59.04726,26.32389 59.04726,74.82546 v 0 c 0,6.88347 -2.1188,9.49166 -8.4269,9.49166 v 0 H 945.16102 c -5.2594,0 -8.39998,-2.60819 -8.39998,-7.3836"
             style="fill:#ffffff;fill-opacity:1;stroke:none"
             id="path1745" />
          <g
             id="g1747"
             transform="translate(-422.94816,-1019.3791)"
             style="fill:#ffffff;fill-opacity:1" />
        </g>
        <g
           id="text892"
           style="font-style:normal;font-weight:normal;font-size:18.0802269px;line-height:1.25;font-family:sans-serif;letter-spacing:0px;word-spacing:0px;fill:#ffffff;fill-opacity:1;stroke:none;stroke-width:0.45200568"
           aria-label="4K">
          <path
             id="path1553"
             style="font-style:normal;font-variant:normal;font-weight:bold;font-stretch:normal;line-height:1;font-family:'ITC Officina RTVE';-inkscape-font-specification:'ITC Officina RTVE Bold';fill:#ffffff;stroke-width:0.45200568"
             d="m -19.081685,104.46001 v 2.35404 c 0,0.19165 0.06509,0.25313 0.253123,0.25313 h 1.627221 c 0.188034,0 0.253123,-0.0615 0.253123,-0.25313 v -2.35404 h 1.157135 c 0.19165,0 0.253123,-0.0651 0.253123,-0.25313 v -1.31262 c 0,-0.19165 -0.06147,-0.25312 -0.253123,-0.25312 h -1.157135 v -7.481601 c 0,-0.188034 -0.06509,-0.253123 -0.253123,-0.253123 h -1.627221 c -0.216962,0 -0.314596,0.03978 -0.430309,0.216963 l -4.682779,7.138071 c -0.09763,0.15188 -0.115713,0.20973 -0.115713,0.39054 v 1.55489 c 0,0.18804 0.06509,0.25313 0.253123,0.25313 z m -2.813283,-1.81887 2.896452,-4.769567 v 4.769567 z" />
          <path
             id="path1555"
             style="font-style:normal;font-variant:normal;font-weight:bold;font-stretch:normal;line-height:1;font-family:'ITC Officina RTVE';-inkscape-font-specification:'ITC Officina RTVE Bold';fill:#ffffff;stroke-width:0.45200568"
             d="m -13.026221,105.54844 -0.828075,0.28567 c -0.137409,0.047 -0.17357,0.10848 -0.17357,0.25312 v 0.72682 c 0,0.19165 0.06147,0.25313 0.253123,0.25313 h 3.9125614 c 0.1880344,0 0.2531232,-0.0615 0.2531232,-0.25313 v -0.72682 c 0,-0.14464 -0.03616,-0.20612 -0.1771862,-0.25312 l -0.8280744,-0.28567 v -3.97765 l 3.8402402,5.22518 c 0.025312,0.0362 0.054241,0.0723 0.083169,0.10848 0.1301777,0.15549 0.1916504,0.16273 0.3869169,0.16273 h 2.3359653 c 0.1880344,0 0.2531232,-0.0615 0.2531232,-0.25313 v -0.72682 c 0,-0.14464 -0.03616,-0.20612 -0.1771863,-0.25312 l -0.8280743,-0.28567 -3.7498391,-4.82742 3.4497073,-4.53814 0.8172262,-0.285667 c 0.1374098,-0.04701 0.1771863,-0.108482 0.1771863,-0.253124 v -0.726825 c 0,-0.19165 -0.065089,-0.253123 -0.2531232,-0.253123 h -3.9270253 c -0.1880344,0 -0.2531232,0.06147 -0.2531232,0.253123 v 0.726825 c 0,0.15549 0.03616,0.191651 0.1735702,0.25674 l 0.5894154,0.282051 -2.9181486,3.97765 v -3.97765 l 0.8280744,-0.285667 c 0.1410257,-0.04701 0.1771862,-0.108482 0.1771862,-0.253124 v -0.726825 c 0,-0.19165 -0.065089,-0.253123 -0.2531232,-0.253123 h -3.9125614 c -0.19165,0 -0.253123,0.06147 -0.253123,0.253123 v 0.726825 c 0,0.144642 0.03616,0.206115 0.17357,0.253124 l 0.828075,0.285667 z" />
        </g>
      </g>
    </g>
  </g>
</svg>
