<?xml version="1.0" encoding="UTF-8"?>
<!-- Generator: Adobe Illustrator 27.4.0, SVG Export Plug-In . SVG Version: 6.00 Build 0)  -->
<svg version="1.1" id="Livello_1" xmlns="http://www.w3.org/2000/svg" xmlns:xlink="http://www.w3.org/1999/xlink" x="0px" y="0px" viewBox="0 0 407.5 187.8" style="enable-background:new 0 0 407.5 187.8;" xml:space="preserve">
<style type="text/css">
	.st0{fill:#FB297E;}
</style>
<g>
	<g>
		<path d="M327.8,121.2c3.9-1.8,8.4-1.2,11.8,1.3c4.2,3.3,6,8.7,7.5,13.7c2.6,10.3,2.9,21.1,1.1,31.6c-0.5,3.1-2.3,6.6-5.7,7.1    c-2.6,0.3-4.9-1.6-5.1-4.1c0,0,0,0,0-0.1c-0.6-7.1,2-14.2,0.4-21.2c-0.4-2.3-2.8-4.3-5.2-3.8c-3.1,1-5.1,3.8-6.6,6.6    c-3.1,6-4.9,12.5-7,18.9c-1.4,4.6-3.7,9.5-8.1,11.9c-7.3,3.9-17.6,3.1-22.8-3.8c-4.5-6.1-7.6-13.2-11.8-19.6    c-1.1-1.4-2.7-3.6-4.8-2.8c-2.1,0.6-2.6,3-2.6,4.9c0.3,7,3.7,13.3,4.8,20.1c0.7,2.8-1.1,6.5-4.4,6c-3.1,0.4-4.9-2.6-6-5    c-4.6-11.3-7.1-23.9-4.5-35.9c1.2-5.6,3.1-11.4,7.4-15.4s11.6-4.8,16.3-1.1c6.7,5.2,9.6,13.7,15.2,19.8c3.1,3.5,9.2,3.6,12-0.3    C315.9,140.6,316.3,126.2,327.8,121.2z"/>
		<path d="M378.5,130.7h13.3v16h15.7v13h-15.8c0,5.3,0,10.7,0,16h-13.3v-16h-16v-13h16L378.5,130.7L378.5,130.7z"/>
	</g>
	<g>
		<path d="M179.3,161.1c0,2.2-0.3,4.2-0.8,6c-0.6,1.8-1.4,3.4-2.5,4.7s-2.5,2.3-4.1,3s-3.5,1.1-5.7,1.1c-1.4,0-2.8-0.3-4.1-0.9    c-1.3-0.6-2.2-1.3-2.9-2.1v14.2h-7.1v-40.3h7.1v3c0.2-0.4,0.5-0.8,0.9-1.2s0.9-0.8,1.5-1.1s1.3-0.6,2-0.8c0.8-0.2,1.6-0.3,2.4-0.3    c2.2,0,4.1,0.4,5.7,1.1c1.6,0.7,3,1.7,4.1,3s1.9,2.8,2.5,4.7C179,156.9,179.3,158.9,179.3,161.1z M171.9,161.1    c0-2.8-0.6-5-1.9-6.5s-2.9-2.2-4.7-2.2c-1.9,0-3.4,0.8-4.7,2.2c-1.3,1.5-1.9,3.7-1.9,6.5s0.6,5,1.9,6.5c1.3,1.5,2.8,2.2,4.7,2.2    s3.4-0.7,4.7-2.2C171.2,166.1,171.9,163.9,171.9,161.1z"/>
		<path d="M183.4,161.1c0-2.1,0.3-4,1-5.8c0.6-1.8,1.6-3.4,2.8-4.7c1.3-1.3,2.8-2.4,4.6-3.1c1.8-0.8,3.9-1.1,6.2-1.1    s4.4,0.4,6.2,1.1c1.8,0.8,3.3,1.8,4.6,3.1s2.2,2.9,2.8,4.7s1,3.7,1,5.8s-0.3,4-1,5.8c-0.6,1.8-1.6,3.4-2.8,4.7    c-1.3,1.3-2.8,2.4-4.6,3.1c-1.8,0.8-3.9,1.1-6.2,1.1s-4.4-0.4-6.2-1.1c-1.8-0.8-3.3-1.8-4.6-3.1s-2.2-2.9-2.8-4.7    C183.7,165.1,183.4,163.2,183.4,161.1z M190.8,161.1c0,1.2,0.2,2.3,0.5,3.4s0.8,2,1.4,2.8c0.6,0.8,1.4,1.4,2.2,1.9    c0.9,0.5,1.9,0.7,3,0.7s2.2-0.2,3-0.7c0.9-0.5,1.6-1.1,2.2-1.9c0.6-0.8,1.1-1.7,1.4-2.8s0.5-2.2,0.5-3.4s-0.2-2.3-0.5-3.4    c-0.3-1.1-0.8-2-1.4-2.8c-0.6-0.8-1.4-1.4-2.2-1.9c-0.9-0.5-1.9-0.7-3-0.7s-2.2,0.2-3,0.7c-0.9,0.5-1.6,1.1-2.2,1.9    c-0.6,0.8-1.1,1.7-1.4,2.8C190.9,158.8,190.8,159.9,190.8,161.1z"/>
		<path d="M217.3,175.4v-28.7h7.1v4.7c1-1.7,2.3-3,3.8-3.8c1.5-0.9,3.1-1.3,4.7-1.3c0.3,0,0.7,0,1.1,0.1c0.4,0,0.8,0.1,1.1,0.2v6.9    c-0.9-0.5-1.9-0.8-3-0.8c-1,0-2,0.2-2.9,0.7s-1.7,1.2-2.4,2.2s-1.3,2.3-1.7,3.9c-0.4,1.6-0.6,3.6-0.6,5.9v10.2L217.3,175.4    L217.3,175.4L217.3,175.4z"/>
	</g>
</g>
<rect x="378.5" y="6.5" width="13.3" height="77.7"/>
<g>
	<path class="st0" d="M0,7.8h20.5l15.6,41.9L51.7,7.8h20.5v76.3H54.7V44.9L43,77.2H29.2L17.4,44.9v39.2H0V7.8z"/>
	<path class="st0" d="M120,84.1v-6.3c-1.5,2-3.5,3.7-6.1,5.1s-5.8,2.1-9.5,2.1c-6,0-10.5-1.7-13.6-5s-4.7-8.3-4.7-14.9v-36H104v32.1   c0,2.5,0.5,4.5,1.6,5.8s2.6,2,4.6,2c3.1,0,5.4-1.3,7.2-4c1.7-2.6,2.6-6.6,2.6-11.8v-24h17.9v54.9C137.9,84.1,120,84.1,120,84.1z    M109.7,6.9h22.7l-16.6,17.4h-13L109.7,6.9z"/>
	<path class="st0" d="M169.5,28.3c4.3,0,7.9,0.8,10.9,2.5s5.4,3.9,7.2,6.6l-9.7,8.9c-2.4-3.2-5.2-4.8-8.3-4.8c-1,0-1.9,0.3-2.6,0.8   c-0.7,0.5-1.1,1.3-1.1,2.2c0,1,0.5,1.9,1.5,2.7s2.6,1.6,5,2.4c2.7,0.9,5.1,1.8,7.3,2.7s4,2,5.6,3.2c1.5,1.2,2.7,2.7,3.5,4.5   s1.3,4,1.3,6.6c0,2.5-0.5,4.8-1.4,7s-2.2,4.2-4,5.8s-3.9,3-6.4,4s-5.3,1.5-8.5,1.5c-3.1,0-5.9-0.4-8.4-1.2   c-2.5-0.8-4.6-1.9-6.5-3.3s-3.5-3-4.9-4.8s-2.5-3.7-3.5-5.7l13.2-7.1c0.9,2.5,2.2,4.6,3.8,6.2s3.7,2.3,6.2,2.3   c1.2,0,2.3-0.3,3.3-0.9s1.5-1.5,1.5-2.8c0-0.9-0.3-1.8-1-2.5s-1.5-1.3-2.7-1.9c-1.1-0.5-2.4-1.1-3.8-1.5c-1.4-0.5-2.9-1-4.4-1.7   c-1.7-0.7-3.3-1.5-4.7-2.4s-2.8-2.1-3.9-3.3c-1.1-1.3-2-2.7-2.6-4.4c-0.7-1.7-1-3.6-1-5.8c0-2.1,0.4-4.1,1.3-6.1   c0.9-1.9,2.1-3.6,3.8-5.1c1.6-1.5,3.6-2.7,5.9-3.5C163.9,28.8,166.5,28.3,169.5,28.3z"/>
	<path class="st0" d="M197.3,12.1c0-1.5,0.3-2.9,0.8-4.2s1.3-2.4,2.2-3.4s2.1-1.7,3.4-2.3c1.3-0.5,2.7-0.8,4.3-0.8s2.9,0.3,4.2,0.8   s2.4,1.3,3.4,2.3c0.9,1,1.7,2.1,2.2,3.4s0.8,2.7,0.8,4.2s-0.3,2.9-0.8,4.2s-1.3,2.4-2.2,3.4s-2.1,1.7-3.4,2.3   c-1.3,0.5-2.7,0.8-4.2,0.8s-2.9-0.3-4.3-0.8c-1.3-0.5-2.4-1.3-3.4-2.3c-0.9-1-1.7-2.1-2.2-3.4C197.5,15,197.3,13.6,197.3,12.1z    M216.9,29.2v54.9H199V29.2H216.9z"/>
	<path class="st0" d="M281.8,69c-2.5,5.5-5.9,9.6-10.2,12.2c-4.3,2.6-9.8,3.9-16.3,3.9c-4.5,0-8.5-0.7-12-2.2s-6.5-3.5-8.9-6.1   s-4.3-5.6-5.6-9c-1.3-3.5-1.9-7.1-1.9-11s0.6-7.5,1.9-11c1.3-3.5,3.1-6.5,5.6-9c2.4-2.6,5.4-4.6,8.9-6.1c3.5-1.5,7.5-2.2,12-2.2   c6.5,0,12,1.3,16.5,4s7.8,6.7,9.9,12.2L265.8,51c-0.8-2.3-2-4.1-3.7-5.4c-1.6-1.3-3.8-2-6.4-2c-3.6,0-6.2,1.2-7.9,3.7   s-2.6,5.6-2.6,9.4s0.9,6.9,2.6,9.4c1.7,2.5,4.4,3.7,8.1,3.7c2.3,0,4.3-0.6,6-1.9c1.7-1.2,3.1-3,4.4-5.3L281.8,69z"/>
	<path class="st0" d="M287.6,56.7c0-4.4,0.6-8.3,1.8-11.8c1.2-3.5,2.9-6.5,5.1-8.9s4.8-4.3,7.8-5.6c3-1.3,6.3-2,10-2   c3.1,0,5.8,0.5,8.3,1.4s4.5,2.2,6.1,3.9v-4.4h17.9v54.9h-17.9v-4.7c-1.5,1.8-3.5,3.2-6.1,4.1s-5.3,1.4-8,1.4c-3.7,0-7.1-0.7-10.2-2   s-5.7-3.2-7.9-5.6c-2.2-2.4-3.9-5.4-5.1-8.9C288.2,65,287.6,61,287.6,56.7z M305,56.7c0,2.3,0.3,4.2,0.9,5.8s1.4,3,2.5,4.1   c1,1.1,2.2,1.9,3.6,2.4s2.8,0.8,4.2,0.8c1.5,0,2.9-0.3,4.2-0.8c1.3-0.5,2.5-1.3,3.6-2.4s1.9-2.5,2.5-4.1s0.9-3.6,0.9-5.8   c0-2.3-0.3-4.2-0.9-5.8s-1.5-3-2.5-4.1c-1.1-1.1-2.3-1.9-3.6-2.4c-1.3-0.5-2.7-0.8-4.2-0.8s-2.9,0.3-4.2,0.8   c-1.4,0.5-2.6,1.3-3.6,2.4c-1,1.1-1.8,2.5-2.5,4.1C305.3,52.5,305,54.4,305,56.7z"/>
</g>
</svg>